<?xml version="1.0" encoding="UTF-8" standalone="no"?>
<!DOCTYPE svg  PUBLIC '-//W3C//DTD SVG 1.1//EN'  'http://www.w3.org/Graphics/SVG/1.1/DTD/svg11.dtd'>
<svg version="1.1" xmlns="http://www.w3.org/2000/svg">
<defs>
<font id="ElectraLH-Cursive" horiz-adv-x="500">
<font-face x-height="433" ascent="750" panose-1="0 0 0 0 0 0 0 0 0 0" underline-thickness="50" font-family="Electra LH" font-style="italic" bbox="-68 -276 966 950" cap-height="702" font-weight="400" descent="-250" underline-position="-150" slope="-7.5" units-per-em="1000" unicode-range="U+0020-00FE"/>
<missing-glyph/>
<glyph horiz-adv-x="250" unicode=" " glyph-name="space"/>
<glyph d="M133 152h-23l28 484l82 10zM158 36q0 -20 -14 -34t-34 -14t-34 14t-14 34t14 34t34 14t34 -14t14 -34z" horiz-adv-x="278" unicode="!" glyph-name="exclam"/>
<glyph d="M131 419h-14l-23 213q-2 14 -2 43q0 43 32 43q33 0 33 -43q0 -22 -3 -43zM279 419h-14l-23 213q-2 14 -2 43q0 43 32 43q33 0 33 -43q0 -22 -3 -43z" horiz-adv-x="370" unicode='&quot;' glyph-name="quotedbl"/>
<glyph d="M117 0h-44l42 227h-101l5 24h101l36 197h-101l5 24h101l42 227h44l-42 -227h136l42 227h44l-42 -227h101l-5 -24h-101l-36 -197h101l-5 -24h-101l-42 -227h-44l42 227h-136zM164 251h136l36 197h-136z" unicode="#" glyph-name="numbersign"/>
<glyph d="M201 -138h-23l17 141q-115 15 -178 98l31 31q40 -55 74.5 -77t75.5 -31l36 307q-156 68 -156 199q0 30 10 59t31 57t62 44t96 14l10 79h22l-9 -81q98 -14 159 -88l-35 -25q-50 77 -126 92l-35 -292q41 -20 63 -33t51 -37.5t42.5 -56.5t13.5 -74q0 -31 -10 -61.5 t-32.5 -61t-67.5 -49t-105 -16.5zM255 319l-35 -297q73 1 113 46.5t40 99.5q0 31 -11 56.5t-32 44t-36 28t-39 22.5zM242 400l33 282q-73 -6 -107 -41.5t-34 -92.5q0 -93 108 -148z" unicode="$" glyph-name="dollar"/>
<glyph d="M181 -12h-45l412 666l-2 2q-58 -38 -134 -38q-19 0 -43 3q6 -97 -62 -170.5t-136 -73.5q-44 0 -77 30.5t-33 84.5q0 82 70 144.5t145 62.5q58 0 86 -55q36 -4 48 -4q103 0 188 78h34zM113 461q0 -27 17.5 -44.5t42.5 -17.5q58 0 116 66t58 134q0 15 -3 28q-33 11 -59 46 q-63 -9 -117.5 -85.5t-54.5 -126.5zM518 7q-42 0 -74.5 30t-32.5 83q0 85 69.5 147.5t142.5 62.5q48 0 71.5 -29t23.5 -73q0 -78 -63.5 -149.5t-136.5 -71.5zM524 29q55 0 113.5 65.5t58.5 133.5q0 39 -18.5 56.5t-41.5 17.5q-53 0 -113 -77t-60 -137q0 -26 17.5 -42.5 t43.5 -16.5z" horiz-adv-x="778" unicode="%" glyph-name="percent"/>
<glyph d="M486 583l-210 -151q-96 -70 -141 -107q-9 -7 -9 -20q0 -99 66 -176t163 -77q93 0 159 69.5t66 177.5q0 53 -10 53l-20 -2q-21 -3 -44 -5.5t-30 -2.5q-46 0 -73 20.5t-27 51.5t26.5 53t61.5 22q64 0 108 -74q4 -9 8 -9q2 0 24.5 4t37.5 4q45 0 73.5 -31t28.5 -72 q0 -25 -12.5 -46t-27.5 -21q-22 0 -22 26q0 22 14 56t14 36q0 8 -20 8q-14 0 -52.5 -6t-38.5 -11l5 -29q4 -28 4 -49q0 -128 -82 -210.5t-195 -82.5q-110 0 -194.5 82t-84.5 214q0 72 28 134t71.5 100.5t92.5 60t93 21.5q41 0 82 -15q12 -5 16 -5q10 0 65 46.5t100 95.5 q21 23 27 23t22 -23q-41 -40 -71.5 -64.5t-91.5 -68.5zM135 354q5 0 8 3q11 7 201 147q30 22 30 28q0 9 -31.5 16.5t-57.5 7.5q-41 0 -73.5 -24t-49.5 -58t-25.5 -63.5t-8.5 -47.5q0 -9 7 -9zM488 388q12 0 29 3t28.5 6.5t11.5 5.5q0 3 -8.5 15.5t-29.5 27.5t-45 15 q-22 0 -33 -11.5t-11 -25.5q0 -36 58 -36z" horiz-adv-x="778" unicode="&amp;" glyph-name="ampersand"/>
<glyph d="M131 419h-14l-23 213q-2 14 -2 43q0 43 32 43q33 0 33 -43q0 -22 -3 -43z" horiz-adv-x="222" unicode="&apos;" glyph-name="quotesingle"/>
<glyph d="M210 -218h-23q-117 189 -117 404q0 88 23 173t52.5 141.5t69 108.5t61.5 74t40 37h28q-113 -106 -169.5 -254.5t-56.5 -314.5q0 -200 92 -369z" horiz-adv-x="333" unicode="(" glyph-name="parenleft"/>
<glyph d="M102 720h23q117 -189 117 -404q0 -88 -23 -173t-52.5 -141.5t-69 -108.5t-61.5 -74t-40 -37h-28q113 106 169.5 254.5t56.5 314.5q0 200 -92 369z" horiz-adv-x="333" unicode=")" glyph-name="parenright"/>
<glyph d="M339 551q0 -14 18 -24l50 -29q15 -8 15 -19q0 -8 -5.5 -14.5t-14.5 -6.5t-42 20.5t-41 20.5q-26 0 -26 -32v-58q0 -25 -20 -25t-20 25v58q0 32 -26 32q-8 0 -41 -20.5t-42 -20.5t-14.5 6.5t-5.5 14.5q0 11 15 19l50 29q18 10 18 24t-18 24l-50 29q-15 8 -15 19 q0 8 5.5 14.5t14.5 6.5t42 -20.5t41 -20.5q26 0 26 32v58q0 25 20 25t20 -25v-58q0 -32 26 -32q8 0 41 20.5t42 20.5t14.5 -6.5t5.5 -14.5q0 -11 -15 -19l-50 -29q-18 -10 -18 -24zM326 549q0 13 9 23t9 14q0 8 -9 8q-1 0 -10 -1.5t-10 -1.5q-19 0 -27.5 18.5t-14.5 18.5 t-14.5 -18.5t-27.5 -18.5q-2 0 -10.5 1.5t-9.5 1.5q-9 0 -9 -8q0 -4 9 -14t9 -23t-9 -23t-9 -14q0 -8 9 -8q1 0 9.5 1.5t10.5 1.5q19 0 27.5 -18.5t14.5 -18.5t14.5 18.5t27.5 18.5q1 0 10 -1.5t10 -1.5q9 0 9 8q0 4 -9 14t-9 23z" unicode="*" glyph-name="asterisk"/>
<glyph d="M265 0v225h-225v43h225v225h43v-225h225v-43h-225v-225h-43z" horiz-adv-x="600" unicode="+" glyph-name="plus"/>
<glyph d="M26 11l28 68q51 -6 82.5 -25t31.5 -44q0 -32 -46 -93t-88 -102l-12 15q35 39 59.5 78.5t24.5 58.5q0 39 -80 44z" horiz-adv-x="250" unicode="," glyph-name="comma"/>
<glyph d="M29 239h197l-5 -56h-197z" horiz-adv-x="250" unicode="-" glyph-name="hyphen"/>
<glyph d="M142 36q0 -20 -14 -34t-34 -14t-34 14t-14 34t14 34t34 14t34 -14t14 -34z" horiz-adv-x="250" unicode="." glyph-name="period"/>
<glyph d="M14 -18l258 736h50l-257 -736h-51z" horiz-adv-x="278" unicode="/" glyph-name="slash"/>
<glyph d="M42 278q0 113 28 212t84 163.5t128 64.5q82 0 129 -75t47 -216q0 -187 -70 -313t-179 -126q-80 0 -123.5 78t-43.5 212zM108 176q0 -74 31.5 -121t70.5 -47q45 0 80.5 43t57 115t33 161.5t11.5 187.5q0 83 -30 133t-78 50q-43 0 -77.5 -44.5t-55.5 -119.5t-32 -166.5 t-11 -191.5z" unicode="0" glyph-name="zero"/>
<glyph d="M350 23v-25q-25 0 -67.5 1t-56.5 1q-10 0 -58.5 -1t-63.5 -1v25l86 7q5 31 20 150l60 483l-84 1v34l164 16l-66 -533q-15 -127 -16 -151z" unicode="1" glyph-name="one"/>
<glyph d="M4 -1v15q29 40 97 120.5t119 142.5t93 137.5t42 129.5q0 48 -37.5 76t-88.5 28q-24 0 -47 -4.5t-40 -11t-30.5 -13.5t-21 -11.5t-8.5 -4.5q-3 0 -2.5 3.5t1.5 4.5l27 80q64 27 135 27q80 0 126 -44t46 -109q0 -58 -40 -130.5t-139 -187.5l-162 -179h309l13 55h27 l-23 -123h-170q-34 0 -113.5 -0.5t-112.5 -0.5z" unicode="2" glyph-name="two"/>
<glyph d="M115 622l17 73q55 23 117 23q67 0 112 -37t45 -92q0 -35 -17 -66.5t-48.5 -58t-53.5 -41t-55 -33.5q162 -44 162 -182q0 -45 -30 -84.5t-73.5 -64.5t-93 -43t-86.5 -26t-56 -8q-7 0 -7 10q0 7 3 9t15 5q256 55 256 199q0 116 -181 143q-13 2 -16 4t-3 8q0 4 3 6.5t18 8.5 q207 86 207 188q0 38 -28 60.5t-71 22.5q-48 0 -110 -22q-21 -8 -24 -8q-4 0 -2 6z" unicode="3" glyph-name="three"/>
<glyph d="M468 344v-55h-113l-38 -289h-74l41 289h-270v28l383 412h15l-51 -387zM63 339l228 2l41 286l-2 2z" unicode="4" glyph-name="four"/>
<glyph d="M113 385l46 315h175q39 0 75 3l7 37h28l-19 -107l-252 -2l-25 -183q242 -29 242 -191q0 -47 -18.5 -87.5t-47 -67.5t-65 -49t-71 -35t-66 -21.5t-49.5 -11.5t-22 -3q-9 0 -9 10q0 5 5.5 8t31.5 11q243 79 243 237q0 29 -12 51t-27.5 34.5t-48.5 23.5t-54.5 15.5 t-66.5 12.5z" unicode="5" glyph-name="five"/>
<glyph d="M493 722v-18q-111 -7 -204.5 -86.5t-137.5 -197.5q59 30 122 30q72 0 126.5 -50.5t54.5 -149.5q0 -111 -60 -186.5t-162 -75.5q-89 0 -141.5 63.5t-52.5 183.5q0 100 39 198.5t110 165.5q128 120 306 123zM240 8q66 0 106 80.5t40 171.5q0 72 -33.5 119t-102.5 47 q-31 0 -68 -14t-44 -26q-3 -3 -10 -27t-14.5 -70.5t-7.5 -91.5q0 -189 134 -189z" unicode="6" glyph-name="six"/>
<glyph d="M64 566l21 134h401q0 -7 -10 -26q-31 -58 -88.5 -171t-105.5 -210t-98.5 -199t-55.5 -112h-48q123 223 345 649l-320 -1l-17 -64h-24z" unicode="7" glyph-name="seven"/>
<glyph d="M38 167q0 38 13 71t29.5 53t42.5 38t41 25t37 16q-19 13 -29.5 22.5t-32 32t-32.5 51.5t-11 63q0 39 17.5 78t62 70t107.5 31q75 0 117 -41t42 -110q0 -40 -15 -73t-40 -54.5t-46.5 -34t-44.5 -20.5q33 -23 49.5 -36.5t38.5 -38.5t32 -54.5t10 -67.5q0 -81 -57.5 -140.5 t-147.5 -59.5q-89 0 -136 53.5t-47 125.5zM158 560q0 -38 18 -69t37.5 -47t59.5 -43q131 44 131 169q0 62 -36.5 95t-82.5 33q-58 0 -92.5 -41.5t-34.5 -96.5zM80 161q0 -42 12.5 -73t33 -47.5t42 -23.5t44.5 -7q66 0 107 51t41 115q0 32 -8.5 56.5t-30 47t-39.5 36.5 t-57 40q-28 -12 -48.5 -24.5t-45 -35t-38 -57t-13.5 -78.5z" unicode="8" glyph-name="eight"/>
<glyph d="M40 464q0 105 63.5 179.5t159.5 74.5q84 0 144.5 -56t60.5 -175q0 -130 -60 -245.5t-166 -192.5q-31 -22 -61 -38.5t-44.5 -22.5t-17.5 -6q-8 0 -8 9q0 5 22 18q64 41 124 113t95 160q-72 -24 -117 -24q-77 0 -136 52.5t-59 153.5zM110 460q0 -44 13 -78t30.5 -52 t40.5 -29t40 -14t31 -3q50 0 101 31q34 122 34 196q0 85 -31 135t-98 50q-72 0 -116.5 -71t-44.5 -165z" unicode="9" glyph-name="nine"/>
<glyph d="M147 36q0 -20 -14 -34t-34 -14t-34 14t-14 34t14 34t34 14t34 -14t14 -34zM183 343q0 -20 -14 -34t-34 -14t-34 14t-14 34t14 34t34 14t34 -14t14 -34z" horiz-adv-x="250" unicode=":" glyph-name="colon"/>
<glyph d="M30 11l28 68q51 -6 83 -25t32 -44q0 -32 -46.5 -93.5t-88.5 -101.5l-11 15q35 39 59 78.5t24 58.5q0 39 -80 44zM177 343q0 -20 -14 -34t-34 -14t-34 14t-14 34t14 34t34 14t34 -14t14 -34z" horiz-adv-x="250" unicode=";" glyph-name="semicolon"/>
<glyph d="M573 -4l-572 242v17l572 242v-46l-495 -205l495 -204v-46z" horiz-adv-x="600" unicode="&lt;" glyph-name="less"/>
<glyph d="M40 321v43h493v-43h-493zM40 129v43h493v-43h-493z" horiz-adv-x="600" unicode="=" glyph-name="equal"/>
<glyph d="M14 -4v46l495 204l-495 205v46l572 -242v-17z" horiz-adv-x="600" unicode="&gt;" glyph-name="greater"/>
<glyph d="M128 151h-21l14 167q181 92 181 172q0 33 -27.5 59.5t-91.5 26.5q-47 0 -106 -18l21 78q67 10 89 10q91 0 134 -38.5t43 -93.5q0 -40 -20 -74.5t-58.5 -61.5t-65.5 -41.5t-69 -33.5zM154 36q0 -20 -14 -34t-34 -14t-34 14t-14 34t14 34t34 14t34 -14t14 -34z" horiz-adv-x="389" unicode="?" glyph-name="question"/>
<glyph d="M687 96l11 -19q-132 -95 -285 -95q-160 0 -272 96.5t-112 251.5q0 102 53 191t148.5 143t210.5 54q149 0 239.5 -84.5t90.5 -208.5q0 -106 -63 -191.5t-135 -85.5q-10 0 -20.5 2.5t-27 10.5t-27 28t-10.5 50h-2q-39 -91 -120 -91q-57 0 -95 40.5t-38 103.5q0 95 68 167 t141 72q79 0 94 -74h2l18 63h57q-55 -186 -67 -232q-9 -36 -9 -54q0 -27 16 -43t37 -16q53 0 106 78t53 170q0 116 -83.5 192.5t-216.5 76.5q-105 0 -192 -52.5t-133.5 -135t-46.5 -175.5q0 -136 96.5 -230.5t245.5 -94.5q141 0 268 92zM295 273q0 -53 22.5 -78t55.5 -25 q22 0 40 11t29.5 25t24 41.5t18.5 45.5t16 52q18 60 18 89q0 35 -20 55t-49 20q-58 0 -106.5 -79.5t-48.5 -156.5z" horiz-adv-x="800" unicode="@" glyph-name="at"/>
<glyph d="M600 28v-30q-80 2 -115 2q-31 0 -111 -2v26q43 1 55.5 5.5t12.5 15.5q0 3 -21 92l-35 134q-2 11 -6 13.5t-18 3.5h-173q-16 0 -22 -4t-12 -15l-45 -100q-52 -113 -52 -129q0 -4 6 -7t17 -4.5t20.5 -2.5t22.5 -1.5t18 -0.5v-26q-86 2 -96 2q-19 0 -49.5 -1t-40.5 -1v30 q35 2 46 9.5t29 41.5q31 56 60 121l160 335q78 162 88 184h15q34 -133 72 -267l104 -364q11 -36 25.5 -47t44.5 -13zM199 314h155q18 0 18 6q0 3 -4 19l-59 231q-3 14 -6 14q-1 0 -9 -14l-103 -226q-8 -18 -8 -21q0 -9 16 -9z" horiz-adv-x="611" unicode="A" glyph-name="A"/>
<glyph d="M16 -2v26l72 4q13 80 44 328t36 316l-78 2v26q75 0 132 2q9 0 35 2t52 3t45 1q93 -3 144.5 -46t51.5 -110q0 -106 -122 -171q61 -22 96.5 -64.5t35.5 -102.5q0 -57 -25 -100.5t-68 -68t-92 -36t-103 -11.5q-12 0 -74.5 1t-72.5 1q-29 0 -109 -2zM476 203q0 153 -261 148 q-2 -15 -11 -87t-16.5 -134t-7.5 -71q0 -22 16 -30.5t59 -8.5q107 0 164 55t57 128zM472 536q0 58 -41.5 103t-128.5 45q-37 0 -42 -16q-9 -21 -42 -294q254 -7 254 162z" horiz-adv-x="630" unicode="B" glyph-name="B"/>
<glyph d="M669 232l-31 -172q-165 -78 -291 -78q-144 0 -224.5 92.5t-80.5 234.5q0 102 44 194.5t130 153.5t194 61q54 0 113.5 -18.5t97.5 -37.5l38 -18q5 0 14 21l30 -4l-25 -190l-22 1q-46 222 -232 222q-123 0 -208.5 -114.5t-85.5 -265.5q0 -141 76.5 -222.5t177.5 -81.5 q167 0 267 224z" horiz-adv-x="741" unicode="C" glyph-name="C"/>
<glyph d="M20 -2v26l69 4q12 74 43.5 323.5t38.5 320.5l-84 2v26q26 0 162 4t158 4q155 0 248 -85t93 -238q0 -99 -35.5 -175t-96 -120.5t-133 -67t-154.5 -22.5q-251 0 -309 -2zM660 384q0 134 -83 217t-238 83q-50 0 -64 -5.5t-18 -22.5q-4 -19 -40 -302.5t-36 -308.5 q0 -6 14 -11t46.5 -8.5t78.5 -3.5q106 0 185 52.5t117 133.5t38 176z" horiz-adv-x="796" unicode="D" glyph-name="D"/>
<glyph d="M166 672l-81 4v26q74 -2 161 -2q297 0 368 2l-24 -166h-31q3 45 3 68q0 33 -11 47.5t-44 20.5t-108 6h-143q-5 -27 -22 -156.5t-19 -141.5h79q81 0 87 6q12 17 23 70l10 47h33q-24 -133 -38 -270h-33l5 74q2 31 -6 40t-40 9h-123q-8 -44 -22 -159t-14 -134 q0 -25 18.5 -32t85.5 -7h188q32 0 53 50l46 109h30l-36 -183h-415q-50 0 -132 -2v26l70 4q11 68 42.5 315.5t39.5 328.5z" horiz-adv-x="667" unicode="E" glyph-name="E"/>
<glyph d="M590 702l-24 -178h-34l2 28q2 28 2 42q0 57 -23 70.5t-117 13.5h-141q-17 -107 -41 -308l62 1q92 1 107 7q10 4 16 17t15 53l10 45h32q-27 -161 -36 -265h-34q0 8 3 41.5t3 41.5q0 23 -10 29t-49 7l-122 1q-32 -247 -37 -320l85 -4v-26q-7 0 -47 1t-75 1q-34 0 -74 -1 t-47 -1v26l68 4q12 74 43.5 323.5t38.5 320.5l-72 4v26q61 -2 119 -2q317 0 377 2z" horiz-adv-x="593" unicode="F" glyph-name="F"/>
<glyph d="M743 246v-24q-37 -2 -47 -10t-13 -34l-13 -104q-125 -58 -186.5 -75t-116.5 -17q-143 0 -233.5 92t-90.5 246q0 165 108 281.5t266 116.5q58 0 119 -17t99.5 -34.5t41.5 -17.5q6 0 9.5 5t9.5 21l22 -3l-29 -200h-21q-46 222 -243 222q-124 0 -209 -111t-85 -258 q0 -139 80 -227t184 -88q92 0 182 70q11 61 16 135l-86 7v24h236z" horiz-adv-x="778" unicode="G" glyph-name="G"/>
<glyph d="M15 -2v26l69 4q12 74 43.5 323.5t38.5 320.5l-72 4v26q64 -2 116 -2q44 0 116 2v-26l-72 -4q-3 -19 -40 -300h355q28 207 36 300l-73 4v26q66 -2 115 -2q45 0 115 2v-26l-68 -4q-12 -73 -43.5 -321t-38.5 -323l72 -4v-26q-64 2 -116 2q-44 0 -116 -2v26l72 4 q14 92 42 318h-355q-32 -246 -38 -318l72 -4v-26q-64 2 -114 2q-44 0 -116 -2z" horiz-adv-x="778" unicode="H" glyph-name="H"/>
<glyph d="M172 28l69 -4v-26q-64 2 -115 2q-44 0 -114 -2v26l70 4q12 74 43.5 323.5t38.5 320.5l-75 4v26q66 -2 117 -2q44 0 116 2v-26l-69 -4q-12 -76 -43.5 -323.5t-37.5 -320.5z" horiz-adv-x="333" unicode="I" glyph-name="I"/>
<glyph d="M88 676v26q102 -2 127 -2q23 0 58.5 1t47.5 1v-26l-64 -4l-78 -579q-4 -32 -8 -54t-13.5 -58.5t-26.5 -70t-40 -63.5q-21 -26 -45.5 -45.5t-31.5 -19.5t-7 7q0 6 18 30q28 47 41.5 101t26.5 154l75 598z" horiz-adv-x="333" unicode="J" glyph-name="J"/>
<glyph d="M280 394l234 -276q47 -55 68 -72.5t51 -22.5v-25q-39 2 -132 2l-282 339l-10 -9q-30 -220 -35 -302l71 -4v-26q-64 2 -114 2q-43 0 -117 -2v26l70 4q12 74 43.5 323.5t38.5 320.5l-72 4v26q64 -2 116 -2q44 0 116 2v-26l-72 -4q-6 -40 -23 -166.5t-19 -142.5l2 -2 l179 169q133 121 133 133q0 9 -76 11v26q137 0 200 2v-30q-25 -2 -39 -6t-40.5 -21.5t-66.5 -52.5z" horiz-adv-x="648" unicode="K" glyph-name="K"/>
<glyph d="M476 28l96 164h30l-60 -194q-57 2 -129 2h-243q-93 0 -156 -2v26l70 4q13 80 44 328t36 316l-70 4v26q64 -2 116 -2q44 0 116 2v-26l-72 -4q-12 -75 -45 -331.5t-33 -277.5q0 -18 7.5 -24.5t40 -10.5t106.5 -4q76 0 146 4z" horiz-adv-x="611" unicode="L" glyph-name="L"/>
<glyph d="M13 -2v26l67 4q30 210 86 644l-72 4v26q72 -2 176 -2q54 -193 176 -593q210 375 326 593h148v-26l-62 -2q-27 -164 -79 -644l71 -4v-26q-9 0 -38 0.5t-57 1t-29 0.5q-9 0 -53.5 -1t-51.5 -1v26l70 4q62 486 73 601l-2 2l-352 -643h-15q-15 46 -58.5 186.5t-90 290.5 t-55.5 179h-2q-12 -83 -16 -121q-5 -34 -18.5 -140t-27.5 -220.5t-17 -134.5l69 -4v-26q-19 0 -38.5 0.5t-30.5 1t-18 0.5q-15 0 -79 -2z" horiz-adv-x="944" unicode="M" glyph-name="M"/>
<glyph d="M19 -2v26l69 4q13 90 31 230.5t30.5 241.5t12.5 106q-5 24 -29.5 46.5t-67.5 23.5v26q67 -2 160 -2q64 -109 194 -297t180 -268h2l63 537l-66 4v26q7 0 44.5 -1t39.5 -1t40 1t46 1v-26l-67 -4q-34 -193 -94 -684h-15q-122 194 -404 605q-2 -19 -32 -268.5t-34 -296.5 l71 -4v-26q-13 0 -42 1t-45 1q-23 0 -87 -2z" horiz-adv-x="778" unicode="N" glyph-name="N"/>
<glyph d="M43 319q0 179 111 289t274 110q74 0 133 -24t94.5 -60t58.5 -83.5t31.5 -89.5t8.5 -83q0 -77 -28.5 -148.5t-79 -126.5t-124.5 -88t-160 -33q-151 0 -235 93.5t-84 243.5zM131 304q0 -147 66 -224.5t156 -77.5q81 0 154 57t116 148t43 188q0 123 -67.5 213t-170.5 90 q-47 0 -96.5 -23.5t-95.5 -69t-75.5 -124.5t-29.5 -177z" horiz-adv-x="796" unicode="O" glyph-name="O"/>
<glyph d="M173 28l84 -4v-26q-64 2 -120 2q-34 0 -74 -1t-48 -1v26l69 4q12 74 43.5 323.5t38.5 320.5l-77 2v26q92 0 118 1q109 7 151 7q94 0 146 -51.5t52 -121.5q0 -207 -347 -207q-29 -217 -36 -300zM472 529q0 74 -50 115.5t-142 41.5q-13 0 -17 -2t-7 -10q-5 -17 -45 -322 q261 0 261 177z" horiz-adv-x="556" unicode="P" glyph-name="P"/>
<glyph d="M747 -116l8 -13q-46 -42 -80 -63t-46.5 -23.5t-31.5 -2.5q-91 0 -271 41t-222 47q-38 -24 -50 -24q-6 0 -13 33.5t-7 45.5q0 28 39 28q27 0 99 -18l111 33q7 2 25 6.5t27 7.5t9 5q0 5 -15 5q-138 10 -212 99t-74 231q0 177 111 286.5t274 109.5q153 0 239.5 -93 t86.5 -231q0 -66 -14.5 -120.5t-38.5 -96t-64 -76.5t-81.5 -59t-100.5 -46t-112 -36.5t-125 -31.5v-2q229 -45 301 -56.5t117 -11.5q60 0 111 26zM353 10q81 0 154 56t116 146t43 186q0 121 -67.5 210.5t-170.5 89.5q-47 0 -97 -23.5t-95.5 -68.5t-75 -123.5t-29.5 -175.5 q0 -145 66 -221t156 -76z" horiz-adv-x="796" unicode="Q" glyph-name="Q"/>
<glyph d="M174 28l71 -4v-26q-64 2 -114 2q-45 0 -115 -2v26l68 4q12 74 43.5 323.5t38.5 320.5l-72 2v26q120 0 152 2q5 0 38 2t60 3t33 1q81 0 131 -45t50 -115q0 -111 -136 -179q-10 -6 -10 -7q0 -3 83.5 -145.5t92.5 -155.5q16 -25 26 -32.5t27 -10.5v-18q-42 0 -59 0.5 t-36 2.5t-27 9t-15.5 15.5t-18.5 26.5q-14 24 -79 143.5t-73 134.5q-5 10 -7.5 12t-8.5 2l-106 -1q-32 -247 -37 -317zM476 541q0 57 -37.5 101t-124.5 44q-52 0 -59 -18q-8 -22 -41 -298q47 0 80.5 3t70 13t59 28t37.5 50t15 77z" horiz-adv-x="648" unicode="R" glyph-name="R"/>
<glyph d="M28 0l26 188l20 -1q9 -79 58 -130t125 -51q67 0 104 41t37 100q0 56 -32.5 96t-79 65t-93 51t-79 69t-32.5 103q0 79 57 133t147 54q47 0 107.5 -18t66.5 -18q16 0 24 17l27 -2l-26 -184l-20 2q-5 52 -26 90t-49 56t-53.5 25.5t-48.5 7.5q-53 0 -92.5 -36t-39.5 -91 q0 -49 33 -85t80 -61t94 -52.5t80 -73t33 -108.5q0 -86 -63 -145.5t-151 -59.5q-49 0 -114 17t-74 17q-10 0 -14 -4t-8 -15z" horiz-adv-x="556" unicode="S" glyph-name="S"/>
<glyph d="M48 528h-30l35 174q18 0 64.5 -1t69.5 -1h296q53 0 135 2l-22 -169h-33q8 77 8 105q0 18 -4 26t-18 10q-27 4 -165 4q-11 -69 -43 -319.5t-40 -330.5l77 -4v-26q-64 2 -121 2q-54 0 -118 -2v26l74 4q12 73 43.5 325.5t38.5 324.5q-148 0 -168 -4q-19 -4 -32.5 -28 t-46.5 -118z" horiz-adv-x="593" unicode="T" glyph-name="T"/>
<glyph d="M86 676v26q90 -2 114 -2q6 0 56.5 1t60.5 1v-26l-71 -4l-51 -360q-10 -60 -10 -119q0 -89 46.5 -135t131.5 -46q98 0 149 62t72 175q23 127 52 423l-77 4v26q19 0 40 -0.5t33.5 -1t21.5 -0.5q8 0 19.5 0.5t32 1t40.5 0.5v-26l-57 -4l-51 -330q-17 -109 -36.5 -167.5 t-62.5 -106.5q-80 -86 -198 -86q-39 0 -79 12.5t-76 37.5t-58.5 69t-22.5 100q0 60 9 131l43 340z" horiz-adv-x="759" unicode="U" glyph-name="U"/>
<glyph d="M32 676v26q88 -2 224 -2v-26q-79 -3 -79 -10q0 -3 98 -346l64 -217l182 347q107 199 107 217q0 2 -1.5 3.5t-9.5 2.5t-21 1.5t-40 1.5v26q109 0 168 2v-30q-31 -2 -39.5 -5.5t-18.5 -19.5q-17 -28 -140 -249l-227 -416h-16q-61 216 -109 371q-97 314 -99 319z" horiz-adv-x="685" unicode="V" glyph-name="V"/>
<glyph d="M28 676v26q68 -2 101 -2q4 0 110 2v-26q-49 -1 -61 -3t-12 -10q0 -2 1 -7.5t2.5 -12t1.5 -8.5l131 -510h2l161 385l-37 162l-65 4v26q70 -2 113 -2q22 0 120 2v-26q-27 -1 -41.5 -2t-22.5 -2.5t-9.5 -3t-1.5 -4.5q0 -9 2 -17l115 -522h2q44 95 136.5 307t92.5 229 q0 8 -11 10t-62 3v26q106 0 170 2v-30q-37 -2 -47 -9.5t-26 -40.5q-43 -93 -97 -214l-193 -426h-15l-112 484h-2l-204 -484h-15q-20 83 -91 346t-95 344z" horiz-adv-x="926" unicode="W" glyph-name="W"/>
<glyph d="M-16 -2v30q30 3 50 17.5t69 77.5l164 210l-133 253q-27 56 -46 70.5t-64 19.5v26q80 -2 128 -2q57 0 117 2v-26q-49 -2 -57.5 -3.5t-8.5 -11.5q0 -13 91 -197l29 -57l92 125q92 124 92 135q0 5 -73 7v26q128 0 198 2v-30q-50 -1 -68.5 -11.5t-46.5 -45.5l-181 -229 l134 -254q38 -72 58.5 -87.5t78.5 -20.5v-26q-70 2 -120 2q-45 0 -90.5 -1t-53.5 -1v26q26 2 39.5 3.5t20.5 3.5t8 3.5t1 5.5q0 18 -50 108l-82 162q-167 -225 -185 -258q-5 -10 -5 -14t2 -5.5t11.5 -3t27 -2.5t51.5 -1v-26q-156 0 -198 -2z" horiz-adv-x="611" unicode="X" glyph-name="X"/>
<glyph d="M0 676v26q85 -2 117 -2q14 0 124 2v-26q-76 -2 -76 -10q0 -4 8 -18l133 -262l137 197q53 77 53 83q0 9 -92 8v26q68 0 184 2v-30q-28 -1 -41.5 -10t-45.5 -52l-166 -225q-16 -22 -19 -40l-4 -27q-3 -26 -8 -66t-10 -83t-9.5 -82.5t-6.5 -58.5l91 -4v-26q-18 0 -64 1 t-71 1q-45 0 -135 -2v26l90 4q8 50 43 317l-136 249q-28 52 -43 64.5t-53 17.5z" horiz-adv-x="556" unicode="Y" glyph-name="Y"/>
<glyph d="M8 0v15q165 223 468 664l-234 -2q-91 -1 -120 -30t-41 -118h-33l20 173q58 -2 196 -2h144q62 0 186 2v-14q-48 -61 -95 -125.5t-100.5 -141.5t-87 -125.5t-97.5 -144t-88 -130.5l232 5q88 1 118.5 29t64.5 134h32l-33 -191q-101 2 -144 2h-388z" horiz-adv-x="611" unicode="Z" glyph-name="Z"/>
<glyph d="M44 -218l118 938h147q11 0 11 -9q0 -8 -10 -17t-24 -9q-13 0 -38 10.5t-37 10.5q-4 0 -10 -3l-114 -905q10 -2 11 -2q7 0 39.5 10.5t38.5 10.5q14 0 24 -7t10 -17q0 -11 -13 -11h-153z" horiz-adv-x="333" unicode="[" glyph-name="bracketleft"/>
<glyph d="M186 -18h-51l-101 736h51z" horiz-adv-x="278" unicode="\" glyph-name="backslash"/>
<glyph d="M269 720l-118 -938h-147q-11 0 -11 9q0 8 10 17t24 9q13 0 38 -10.5t37 -10.5q4 0 10 3l114 905q-10 2 -11 2q-7 0 -39.5 -10.5t-38.5 -10.5q-14 0 -24 7t-10 17q0 11 13 11h153z" horiz-adv-x="333" unicode="]" glyph-name="bracketright"/>
<glyph d="M177 370h-22l150 348h16l151 -348h-22l-137 239z" horiz-adv-x="600" unicode="^" glyph-name="asciicircum"/>
<glyph d="M0 -125v50h500v-50h-500z" unicode="_" glyph-name="underscore"/>
<glyph d="M248 485h-22l-142 110q-18 15 -18 33q0 12 8.5 21.5t23.5 9.5q14 0 34 -22z" horiz-adv-x="278" unicode="`" glyph-name="grave"/>
<glyph d="M439 75l13 -19q-104 -72 -141 -72q-29 0 -29 38q0 2 1.5 17t1.5 19q-4 -2 -18 -12.5t-20.5 -15t-20.5 -13t-23 -13.5t-21.5 -10t-23.5 -7.5t-22 -2.5q-47 0 -79.5 38t-32.5 97q0 34 10.5 70.5t36 76.5t63.5 72t99 54.5t136 26.5q8 25 18 30.5t58 6.5l-60 -260 q-35 -149 -35 -154q0 -11 9 -11q4 0 21 9.5t37 21.5t22 13zM307 152l36 154q13 54 13 66q0 22 -27 22q-83 0 -157 -78t-74 -185q0 -48 22.5 -72.5t58.5 -24.5q54 0 99 45q17 16 29 73z" unicode="a" glyph-name="a"/>
<glyph d="M38 -26l-13 10q12 43 26 108l101 476q21 89 21 111q0 10 -12 10q-15 0 -57 -6v29l165 30q-31 -110 -45 -174l-44 -190q0 -10 2 -10q33 26 50.5 38t44 22t56.5 10q59 0 91 -46t32 -109q0 -69 -30 -136.5t-90 -115t-134 -47.5q-27 0 -62.5 9.5t-39.5 9.5q-18 0 -62 -29z M156 268l-43 -203q-5 -13 -5 -28q0 -29 64 -29q55 0 97.5 29t65 73t34 86t11.5 77q0 56 -23.5 86.5t-66.5 30.5q-30 0 -62.5 -16.5t-45.5 -32.5t-26 -73z" unicode="b" glyph-name="b"/>
<glyph d="M332 125l15 -13q-79 -128 -181 -128q-69 0 -107.5 49.5t-38.5 124.5q0 108 69 194t171 86q56 0 86 -26t30 -61q0 -25 -17 -44t-53 -19q-17 0 -17 12q0 5 13.5 41t13.5 47q0 28 -44 28q-76 0 -126 -82.5t-50 -175.5q0 -57 25 -89.5t71 -32.5q28 0 54.5 14t43 30t42.5 45z " horiz-adv-x="407" unicode="c" glyph-name="c"/>
<glyph d="M442 75l13 -19q-96 -73 -137 -73q-32 0 -32 39v19q-1 2 -9 -4q-27 -18 -41.5 -27t-36.5 -16.5t-43 -7.5q-57 0 -95.5 48t-38.5 126q0 109 74 193.5t176 84.5q34 0 88 -21l48 234q4 28 4 31q0 10 -11 10q-20 0 -55 -5l-4 29l159 26l-141 -672q-6 -24 -6 -32q0 -10 9 -10 q10 0 79 47zM291 71l54 270q6 26 6 35q0 38 -58 38q-54 0 -100 -41.5t-70.5 -100t-24.5 -113.5t27 -90t75 -35q37 0 91 37z" unicode="d" glyph-name="d"/>
<glyph d="M330 131l17 -11q-19 -29 -33 -46.5t-38 -41.5t-53 -36t-63 -12q-69 0 -105.5 49.5t-36.5 121.5q0 108 74 195.5t184 87.5q48 0 72 -21t24 -52q0 -11 -1.5 -20t-15 -32t-37 -45t-74.5 -55t-121 -68q-20 -10 -24 -13.5t-4 -9.5q0 -7 3.5 -19t12 -27.5t29 -26.5t48.5 -11 q75 0 142 93zM267 416q-67 0 -122 -82.5t-55 -169.5q0 -10 7 -9q3 1 23 12.5t52.5 33.5t62.5 47.5t51.5 58t21.5 61.5q0 48 -41 48z" horiz-adv-x="407" unicode="e" glyph-name="e"/>
<glyph d="M22 362v21l98 29q17 104 35 156.5t49 90.5q66 83 140 83q35 0 84 -11l-15 -51q-96 20 -127 20q-23 0 -40 -32q-19 -39 -58 -251q36 9 61 9q19 0 39 -4v-36q-44 4 -53 4q-27 0 -41.5 -10.5t-18.5 -35.5l-43 -228q-28 -148 -38 -191t-20 -61q-16 -26 -76 -82l-14 9 q33 72 60 212l69 372z" horiz-adv-x="278" unicode="f" glyph-name="f"/>
<glyph d="M390 472l28 -4q0 -68 -4 -80q-5 -16 -21 -18q-6 -111 -38.5 -160.5t-129.5 -68.5q-47 -9 -67 -13.5t-45.5 -13.5t-34.5 -20.5t-9 -27.5q0 -23 26 -33t64.5 -9t84 -0.5t84 -6.5t64.5 -29.5t26 -66.5q0 -79 -87 -138t-199 -59q-68 0 -107 29.5t-39 83.5q0 36 20 67t40 48 l19 17q0 3 -11.5 9t-23 20.5t-11.5 37.5q0 42 32 67t64.5 34t32.5 12q0 5 -8 9q-74 35 -74 113q0 69 54 118t133 49q18 0 41.5 -4t40 -8t18.5 -4q6 0 9.5 1.5t11 13.5t16.5 35zM130 260q0 -48 28 -72.5t61 -24.5q53 0 83 64t30 145q0 22 -13 32t-44 10q-61 0 -103 -46 t-42 -108zM8 -165q0 -35 35 -56t84 -21q89 0 161 46.5t72 96.5q0 36 -39 46.5t-147 10.5q-28 0 -57 -4q-109 -53 -109 -119z" horiz-adv-x="463" unicode="g" glyph-name="g"/>
<glyph d="M125 686v30l163 26q-28 -92 -41 -154l-51 -227q-2 -4 -2 -9q0 -3 2 -3q1 0 35.5 22.5t81.5 44.5t80 22q31 0 49 -20t18 -47q0 -29 -36.5 -173t-36.5 -157q0 -9 8 -9q11 0 82 51l14 -18q-85 -73 -131 -73q-17 0 -29 10.5t-12 30.5q0 21 36.5 159t36.5 167t-44 29 q-33 0 -74.5 -16.5t-64.5 -32.5q-16 -10 -23 -25t-16 -57l-54 -257h-72q4 18 26.5 116t26.5 115l91 427q4 15 4 26q0 8 -10 8z" horiz-adv-x="537" unicode="h" glyph-name="h"/>
<glyph d="M49 355l-11 18q4 4 23.5 18t52 30.5t53.5 16.5q19 0 27.5 -10.5t8.5 -23.5q0 -20 -41 -187t-41 -174q0 -12 9 -12q4 0 43 24q18 11 30 18l12 -19q-92 -66 -130 -66q-17 0 -26.5 10t-9.5 26q0 8 41 173t41 188q0 11 -8 11t-74 -41zM238 647q0 -26 -27.5 -44.5t-55.5 -18.5 q-9 0 -9 9q0 33 14 62t42 29q13 0 24.5 -12t11.5 -25z" horiz-adv-x="278" unicode="i" glyph-name="i"/>
<glyph d="M20 -218l-13 10q21 41 42 130l86 398q9 41 9 57q0 12 -10 12q-15 0 -82 -45l-13 19q90 75 130 75q47 0 47 -50q0 -22 -21 -118l-83 -364q-7 -33 -20 -50.5t-72 -73.5zM255 647q0 -26 -27.5 -44.5t-55.5 -18.5q-9 0 -9 9q0 33 14 62t42 29q13 0 24.5 -12t11.5 -25z" horiz-adv-x="278" unicode="j" glyph-name="j"/>
<glyph d="M105 0h-70q4 20 28.5 126t35.5 163l80 381q2 8 2 12q0 9 -11 9q-5 0 -55 -7v28l159 30q-4 -14 -22.5 -92.5t-30.5 -119.5l-39 -171l-2 -8q0 -6 6 0q92 89 169 89q32 0 48.5 -16t16.5 -44q0 -24 -9 -42.5t-35 -37t-48 -30.5t-73 -37q-27 -13 -27 -18q0 -2 5 -9l58 -93 q27 -43 47.5 -67t28.5 -29t20 -9l-3 -14q-30 -15 -53 -15q-20 0 -40 18t-58 81l-64 103q-6 8 -6 13q0 7 9.5 14t48.5 29q87 48 112 67t25 48q0 42 -46 42q-53 0 -122 -65q-18 -18 -32 -81z" horiz-adv-x="444" unicode="k" glyph-name="k"/>
<glyph d="M216 80l11 -19q-90 -73 -137 -73q-20 0 -31 14t-11 35q0 23 25 134l110 486q0 2 1.5 11t1.5 12q0 10 -12 10q-5 0 -13 -1t-21 -2t-23 -2v29l161 28q-2 -6 -34.5 -134t-38.5 -155l-40 -176q-45 -203 -45 -234q0 -15 9 -15q14 0 87 52z" horiz-adv-x="278" unicode="l" glyph-name="l"/>
<glyph d="M35 356l-12 19q84 63 120 63q21 0 33 -16t12 -44q0 -2 -2 -17t-1 -17l33 24q34 24 79 47t76 23q29 0 44 -20.5t15 -45.5q0 -6 -1 -13.5t-1 -11t2 -3.5q1 0 21.5 15t47 32.5t61 32t60.5 14.5q31 0 46.5 -20t15.5 -45q0 -40 -37 -177t-37 -155q0 -9 9 -9q11 0 82 51l14 -18 q-89 -73 -132 -73q-16 0 -28.5 10.5t-12.5 30.5q0 22 37 162.5t37 164.5q0 28 -39 28q-29 0 -67 -16.5t-59 -32.5q-15 -10 -22 -25t-15 -57l-55 -257h-68l66 311q9 38 9 49q0 28 -37 28q-29 0 -66 -16.5t-58 -32.5q-15 -11 -21.5 -26t-14.5 -56l-55 -257h-68l68 319 q10 45 10 54q0 19 -17 19q-18 0 -72 -36z" horiz-adv-x="759" unicode="m" glyph-name="m"/>
<glyph d="M36 356l-12 19q51 37 75.5 50t44.5 13q44 0 44 -60q0 -5 -0.5 -9.5t-0.5 -8t-0.5 -6.5t-0.5 -5v-3.5t0.5 -2t1.5 -0.5l36 23q37 24 86.5 48t82.5 24q31 0 49 -20t18 -47q0 -29 -36.5 -173t-36.5 -157q0 -9 8 -9q11 0 82 51l14 -18q-85 -73 -131 -73q-17 0 -29 10.5 t-12 30.5q0 21 36.5 159t36.5 167t-44 29q-33 0 -74.5 -16.5t-64.5 -32.5q-16 -10 -23 -25t-16 -57l-54 -257h-68l68 319q8 38 8 54q0 19 -16 19q-18 0 -72 -36z" horiz-adv-x="537" unicode="n" glyph-name="n"/>
<glyph d="M18 176q0 100 66 181t163 81q75 0 123 -54.5t48 -140.5q0 -105 -65 -182t-161 -77q-87 0 -130.5 57t-43.5 135zM90 145q0 -62 25 -100.5t71 -38.5q69 0 114.5 83t45.5 185q0 60 -23.5 101t-69.5 41q-64 0 -113.5 -87t-49.5 -184z" horiz-adv-x="463" unicode="o" glyph-name="o"/>
<glyph d="M252 580l14 -8q-23 -57 -42 -150l-9 -39l-1 -9q0 -3 2 -3q7 4 30.5 20.5t36 24t33.5 15t39 7.5q51 0 85 -44t34 -122q0 -108 -67 -197t-172 -89q-48 0 -100 18l-56 -264h-53q-15 0 -11 16l108 507l-2 2l-86 -79l-21 26l117 94l38 176q4 18 7.5 25t15.5 18zM195 286 l-56 -263q31 -9 56 -9q67 0 115 41.5t68 96.5t20 111q0 58 -24.5 89.5t-61.5 31.5q-21 0 -53.5 -14t-44.5 -29q-11 -13 -19 -55z" horiz-adv-x="519" unicode="p" glyph-name="p"/>
<glyph d="M287 -260h-43q-25 0 -25 14q0 6 2 14l65 294l-2 2q-83 -78 -147 -78q-46 0 -80.5 41t-34.5 120q0 115 74.5 203t175.5 88q14 0 29.5 -2.5t25 -5.5t21.5 -6.5t15 -4.5q9 37 20.5 45t63.5 9q-15 -51 -56 -235zM300 131l58 268q-29 11 -60 11q-86 0 -143 -84.5t-57 -178.5 q0 -46 20.5 -77.5t61.5 -31.5t86 35q16 13 22.5 24t11.5 34z" horiz-adv-x="481" unicode="q" glyph-name="q"/>
<glyph d="M36 356l-11 19q83 63 116 63q40 0 40 -56q0 -4 -2.5 -22t-2.5 -20q0 -4 3 -4q2 0 11 15q22 38 52 66.5t56 28.5q32 0 32 -41q0 -19 -6 -39q-33 1 -56 -1t-40 -11t-27 -17t-18.5 -29.5t-12.5 -37.5t-12 -51l-49 -219h-67l64 290q11 59 11 71q0 25 -17 25q-16 0 -64 -30z " horiz-adv-x="315" unicode="r" glyph-name="r"/>
<glyph d="M210 90q0 33 -25.5 61t-55.5 45.5t-55.5 48.5t-25.5 70q0 47 35 85t101 38q55 0 85.5 -28.5t30.5 -64.5q0 -22 -12.5 -37t-25.5 -15q-8 0 -16 7t-8 24q0 21 16 62q-25 30 -70 30q-36 0 -55 -22t-19 -52q0 -32 25.5 -59.5t55.5 -46t55.5 -50.5t25.5 -72q0 -54 -41.5 -92 t-103.5 -38q-57 0 -88 31t-31 68q0 26 16 45.5t33 19.5q21 0 21 -27q0 -16 -25 -76q33 -39 73 -39q30 0 57 22.5t27 61.5z" horiz-adv-x="333" unicode="s" glyph-name="s"/>
<glyph d="M34 385v27l92 5l41 179h68l-37 -160q-2 -10 0 -13t8 -2l88 5v-34l-92 -2q-10 0 -13 -3.5t-6 -16.5l-23 -101q-40 -170 -40 -207q0 -36 25 -36q23 0 100 40l11 -20q-37 -22 -56.5 -33t-45 -20t-45.5 -9q-26 0 -41.5 20t-15.5 53q0 37 22 134l40 175q3 9 3 15q0 5 -10 5z " horiz-adv-x="296" unicode="t" glyph-name="t"/>
<glyph d="M476 85l13 -17q-107 -82 -146 -82q-34 0 -34 40q0 6 2 13.5t2 10t-4 2.5l-30 -16q-30 -17 -71 -33.5t-68 -16.5q-32 0 -54 22t-22 74q0 38 28 153t28 136q0 11 -10 11q-13 0 -78 -38l-12 19q38 27 55 38t40 21.5t39 10.5q14 0 26 -9.5t12 -32.5q0 -27 -31 -151t-31 -152 q0 -58 55 -58q35 0 125 39q6 2 9 16l82 341h67l-86 -358q-4 -14 -4 -26q0 -10 8 -10q6 0 19 7t24 14.5t27 18.5t20 13z" horiz-adv-x="537" unicode="u" glyph-name="u"/>
<glyph d="M130 -24l-15 8q9 36 9 106q0 113 -18 203.5t-57 90.5q-9 0 -37 -19l-8 21q52 52 82 52q39 0 64 -55.5t33.5 -132.5t6.5 -167l2 -2q3 5 27.5 39.5t41 59.5t37.5 60t32.5 64t11.5 48q0 27 -17.5 36.5t-48.5 13.5l-3 20q34 24 60 24q23 0 36 -17.5t13 -43.5 q0 -107 -252 -409z" horiz-adv-x="407" unicode="v" glyph-name="v"/>
<glyph d="M13 366l-7 23q1 0 8.5 5.5t13.5 10t16.5 11.5t19.5 11t19.5 7.5t18.5 3.5q20 0 32.5 -21.5t19 -64t9.5 -82.5t5.5 -100.5t5.5 -93.5q20 25 81.5 114t62.5 98v4q0 6 -2 20l-17 102q20 5 39 5q15 0 21.5 -4t13 -23t9.5 -60l23 -269q169 219 169 293q0 25 -16.5 34t-50.5 12 l-2 20q39 24 64 24q22 0 33.5 -19.5t11.5 -41.5q0 -34 -18.5 -77.5t-60.5 -104.5t-75.5 -104t-97.5 -123l-14 5l-26 264l-193 -269l-15 5q0 84 -13.5 243.5t-35.5 159.5q-20 0 -52 -18z" horiz-adv-x="630" unicode="w" glyph-name="w"/>
<glyph d="M-4 -14l7 63l66 -2q16 26 49.5 71.5t55.5 80.5q-2 8 -8 38t-11 50.5t-12.5 45t-16.5 38t-19 13.5q-5 0 -10 -1t-11 -4.5t-10 -6t-12.5 -8t-12.5 -8.5l-13 21q39 33 60 45t40 12q33 0 48.5 -33t37.5 -128q31 56 56 91.5t44 50.5t30.5 19t26.5 4q17 0 27 -5q-3 -28 -12 -55 q-5 0 -31.5 2.5t-34.5 3.5q-50 -57 -99 -135q7 -26 15.5 -63t13.5 -60t12.5 -45.5t17.5 -33.5t23 -11q3 0 6 0.5t5 1t5.5 2.5t5.5 3.5t6.5 4.5t6.5 5t8 6.5t9 7.5l14 -19q-53 -60 -96 -60q-39 0 -56.5 36t-44.5 148l-62 -100q-35 -53 -55 -70.5t-46 -17.5q-9 0 -23 2z" horiz-adv-x="426" unicode="x" glyph-name="x"/>
<glyph d="M6 358l-14 19q65 61 100 61q21 0 39 -16t30.5 -47t22.5 -61.5t16.5 -74t10.5 -69t7.5 -62t3.5 -37.5h2q77 128 106 190t29 94q0 25 -15.5 34t-49.5 13l-2 16q35 28 61 28q21 0 34.5 -17.5t13.5 -40.5q0 -43 -29 -99.5t-121 -206.5q-172 -279 -233 -358l-29 43 q40 36 67.5 65.5t41.5 48t40 55.5q13 19 16.5 29t3.5 30q0 85 -29 237t-72 152q-21 0 -51 -26z" horiz-adv-x="426" unicode="y" glyph-name="y"/>
<glyph d="M366 90l17 -16q-5 -5 -22.5 -25t-29.5 -31.5t-30.5 -22.5t-34.5 -11q-6 0 -11.5 1t-12.5 3.5t-11 4t-12 6t-11 6t-12.5 7.5t-11.5 7q-54 35 -92 35q-25 0 -46 -19q10 -25 10 -43q0 -15 -9 -28.5t-24 -13.5q-12 0 -18.5 9t-6.5 21q0 39 50 92l276 290l-2 2q-18 -6 -36 -6 q-9 0 -55 4t-53 4q-40 0 -58.5 -12.5t-44.5 -53.5l-21 11l61 106q44 13 70 13q8 0 53 -4t52 -4q41 0 64.5 5.5t57.5 20.5l12 -10l-314 -331l2 -2q15 3 20 3q38 0 90.5 -32t71.5 -32q18 0 32.5 10t39.5 36z" horiz-adv-x="426" unicode="z" glyph-name="z"/>
<glyph d="M19 244v14q71 17 98 48t36 104l9 76q4 32 6.5 48.5t9 44.5t14.5 43.5t22.5 35.5t33.5 31t46.5 20t62.5 11v-20q-79 -8 -108.5 -48t-40.5 -130l-7 -54q-6 -44 -9 -64.5t-10.5 -49t-16.5 -40.5t-25.5 -27t-40 -22t-56.5 -13v-2q51 -7 82.5 -30.5t31.5 -82.5q0 -43 -11 -111 q-10 -74 -10 -111q0 -28 7.5 -48.5t17.5 -32t26.5 -18.5t28.5 -9.5t30 -4.5v-20q-150 9 -150 138q0 44 11 110q10 74 10 107q0 51 -25 72.5t-73 34.5z" horiz-adv-x="352" unicode="{" glyph-name="braceleft"/>
<glyph d="M90 -214v1000h42v-1000h-42z" horiz-adv-x="222" unicode="|" glyph-name="bar"/>
<glyph d="M321 258v-14q-71 -17 -98 -48t-36 -104l-9 -76q-4 -32 -6.5 -48.5t-9 -44.5t-14.5 -43.5t-22.5 -35.5t-33.5 -31t-46.5 -20t-62.5 -11v20q79 8 108.5 48t40.5 130l7 54q6 44 9 64.5t10.5 49t16.5 40.5t25.5 27t40 22t56.5 13v2q-51 7 -82.5 30.5t-31.5 82.5q0 43 11 111 q10 74 10 111q0 28 -7.5 48.5t-17.5 32t-26.5 18.5t-28.5 9.5t-30 4.5v20q150 -9 150 -138q0 -44 -11 -110q-10 -74 -10 -107q0 -51 25 -72.5t73 -34.5z" horiz-adv-x="352" unicode="}" glyph-name="braceright"/>
<glyph d="M27 161h-24q18 83 57 118t80 35q42 0 153.5 -45t146.5 -45q70 0 107 109h24q-6 -22 -11 -36t-17 -39t-25.5 -40.5t-36.5 -27.5t-51 -12q-42 0 -150.5 44.5t-146.5 44.5q-39 0 -66.5 -29t-39.5 -77z" horiz-adv-x="600" unicode="~" glyph-name="asciitilde"/>
<glyph d="M127 274h23l-28 -484l-82 -10zM102 390q0 20 14 34t34 14t34 -14t14 -34t-14 -34t-34 -14t-34 14t-14 34z" horiz-adv-x="278" unicode="¡" glyph-name="exclamdown"/>
<glyph d="M157 78l135 354q-72 -5 -119.5 -86.5t-47.5 -171.5q0 -67 32 -96zM319 430l-140 -368q16 -10 42 -10q28 0 54.5 14t43 30t42.5 45l15 -13q-79 -128 -181 -128q-18 0 -38 5l-51 -133h-28l54 142q-40 20 -61.5 63t-21.5 97q0 108 69 194t171 86q8 0 11 -1l45 119h28 l-46 -122q38 -8 58 -31.5t20 -51.5q0 -25 -17 -44t-53 -19q-17 0 -17 12q0 5 13.5 41t13.5 47q0 21 -26 26z" unicode="¢" glyph-name="cent"/>
<glyph d="M417 117l48 -38q-44 -91 -140 -91q-54 0 -116.5 36t-94.5 40q-28 -76 -65 -76q-9 0 -17 7t-8 19q0 47 76 68q16 31 23 65t7 107q0 32 -2 90h-92v28h90q-1 44 -0.5 82.5t8.5 79t24 73.5q56 111 176 111q51 0 88.5 -21.5t55.5 -50.5l-31 -48q-25 98 -117 98 q-56 0 -90 -41.5t-40 -110.5q-4 -36 -4 -172h123v-28h-123q-8 -69 -13 -100.5t-19.5 -77.5t-38.5 -82q40 -3 99.5 -28.5t85.5 -25.5q30 0 64 21t43 66z" unicode="£" glyph-name="sterling"/>
<glyph d="M377 350q0 52 -37.5 89.5t-89.5 37.5t-89.5 -37.5t-37.5 -89.5t37.5 -89.5t89.5 -37.5t89.5 37.5t37.5 89.5zM121 461l-58 58l17 17l58 -58q54 42 112 42t112 -42l58 58l17 -17l-58 -58q41 -54 41 -111t-41 -111l58 -58l-17 -17l-58 57q-56 -41 -112 -41t-112 41l-58 -57 l-17 17l58 58q-41 54 -41 111t41 111z" unicode="¤" glyph-name="currency"/>
<glyph d="M213 352l-36 76h-150v24h139l-22 48q-71 150 -86 164q-9 9 -35 12v26q6 0 49 -1t44 -1q3 0 48.5 1t52.5 1v-26q-47 -2 -57.5 -3.5t-10.5 -6.5q0 -6 6 -18l120 -257l123 192q48 76 48 83q0 3 -2 4t-10 2t-24.5 1.5t-45.5 0.5l1 26q68 0 152 2v-30q-11 -1 -17 -3.5 t-18 -15.5t-32 -43l-107 -158h141v-24h-157l-25 -37q-11 -16 -14.5 -28t-9.5 -61h167v-24h-170q-27 -198 -29 -250l90 -4v-26q-20 0 -63.5 1t-64.5 1q-39 0 -129 -2v26l91 4q19 131 34 250h-176v24h179z" unicode="¥" glyph-name="yen"/>
<glyph d="M90 -89v250h42v-250h-42zM90 411v250h42v-250h-42z" horiz-adv-x="222" unicode="¦" glyph-name="brokenbar"/>
<glyph d="M244 624l11 -5q-15 -35 -15 -60q0 -58 32 -151.5t64 -194.5t32 -176q0 -103 -49 -170t-121 -67q-56 0 -85.5 34t-29.5 74q0 30 14 53t33 23q21 0 21 -24q0 -13 -29 -112q34 -34 76 -34q23 0 46.5 10.5t46 32.5t37 64t14.5 97q0 74 -31 170.5t-62 187.5t-31 152 q0 54 26 96zM242 -126l-10 7q37 52 37 114q0 60 -29.5 155t-59.5 193.5t-30 166.5q0 102 46.5 155t104.5 53q49 0 79.5 -32.5t30.5 -77.5q0 -28 -13 -49.5t-29 -21.5q-22 0 -22 29q0 27 28 101q-27 37 -73 37t-86 -42.5t-40 -127.5q0 -59 19 -132.5t41.5 -132.5t41.5 -132.5 t19 -132.5q0 -75 -55 -130z" unicode="§" glyph-name="section"/>
<glyph d="M104 603q10 0 22.5 -9.5t12.5 -26.5q0 -25 -27 -43t-53 -18q-9 0 -9 10q0 31 13.5 59t40.5 28zM297 603q10 0 22.5 -9.5t12.5 -26.5q0 -25 -27 -43t-53 -18q-9 0 -9 10q0 31 13.5 59t40.5 28z" horiz-adv-x="278" unicode="¨" glyph-name="dieresis"/>
<glyph d="M550 270l16 -8q-56 -115 -169 -115q-78 0 -138.5 54.5t-60.5 145.5q0 94 61 153.5t140 59.5q39 0 77.5 -17.5t40.5 -17.5q14 0 19 24h16l4 -144h-17q-32 137 -134 137q-64 0 -104.5 -56t-40.5 -138q0 -52 16.5 -89.5t42 -55t49 -25t45.5 -7.5q84 0 137 99zM768 349 q0 -152 -108 -259.5t-260 -107.5t-260 107.5t-108 259.5q0 153 108 261t260 108t260 -108t108 -261zM740 349q0 141 -100 241t-240 100t-240 -100t-100 -241q0 -140 100 -239.5t240 -99.5t240 99.5t100 239.5z" horiz-adv-x="800" unicode="©" glyph-name="copyright"/>
<glyph d="M306 503l9 -15q-66 -44 -91 -44q-22 0 -22 26q0 1 1.5 8.5t0.5 8.5q-1 -1 -13 -9t-23 -15t-28 -13t-30 -6q-30 0 -51 23t-21 59q0 15 4.5 33.5t19 44.5t37.5 46.5t65.5 36.5t97.5 19q5 15 12 18t37 4l-38 -152l-23 -92q0 -7 6 -7q4 0 50 26zM215 548l22 87q8 32 8 38 q0 13 -16 13q-49 0 -92 -44.5t-43 -105.5q0 -28 14 -42t33 -14q31 0 57 26q10 10 17 42z" horiz-adv-x="315" unicode="ª" glyph-name="ordfeminine"/>
<glyph d="M34 222v5q11 9 86 67.5t90 69.5q10 9 15 9q9 0 9 -10q0 -12 -131 -143q72 -124 72 -139q0 -10 -9 -10q-3 0 -13 10q-10 11 -60 71t-59 70zM182 222v5q11 9 86 67.5t90 69.5q10 9 15 9q9 0 9 -10q0 -12 -131 -143q72 -124 72 -139q0 -10 -9 -10q-3 0 -13 10q-10 11 -60 71 t-59 70z" horiz-adv-x="463" unicode="«" glyph-name="guillemotleft"/>
<glyph d="M40 321v43h493v-235h-43v192h-450z" horiz-adv-x="600" unicode="¬" glyph-name="logicalnot"/>
<glyph d="M768 349q0 -152 -108 -259.5t-260 -107.5t-260 107.5t-108 259.5q0 153 108 261t260 108t260 -108t108 -261zM740 349q0 141 -100 241t-240 100t-240 -100t-100 -241q0 -140 100 -239.5t240 -99.5t240 99.5t100 239.5zM232 534v14h181q52 0 87.5 -24t35.5 -71 q0 -40 -23.5 -68.5t-61.5 -41.5l61 -84q51 -69 83 -89v-9h-62q-10 0 -20 7t-21.5 24t-22.5 34.5t-30.5 48.5t-37.5 58h-55v-118q0 -24 8 -29.5t44 -8.5v-16h-166v16q36 3 43.5 8.5t7.5 29.5v281q0 24 -7.5 29.5t-43.5 8.5zM346 529v-178h49q38 0 58 26t20 72q0 80 -81 80 h-46z" horiz-adv-x="800" unicode="®" glyph-name="registered"/>
<glyph d="M325 531h-294l7 48h294z" horiz-adv-x="278" unicode="¯" glyph-name="macron"/>
<glyph d="M214 718q58 0 99 -41t41 -99q0 -57 -41 -98t-99 -41t-99 41t-41 98q0 58 41 99t99 41zM214 686q-44 0 -76 -31.5t-32 -76.5q0 -44 32 -75.5t76 -31.5t76 31.5t32 75.5q0 45 -32 76.5t-76 31.5z" horiz-adv-x="400" unicode="°" glyph-name="degree"/>
<glyph d="M265 80v185h-225v43h225v185h43v-185h225v-43h-225v-185h-43zM40 0v43h493v-43h-493z" horiz-adv-x="600" unicode="±" glyph-name="plusminus"/>
<glyph d="M300 300h-115q-127 0 -164 -1v12q7 9 70.5 66.5t115 116t51.5 91.5q0 67 -77 67q-22 0 -48 -7t-43 -13.5t-20 -6.5q-2 0 -2 3q0 4 1 6l21 63q61 21 106 21q62 -1 92 -30t30 -74q0 -24 -15.5 -52.5t-44 -58.5t-53 -52t-58.5 -50.5t-43 -36.5h182l14 42h20z" horiz-adv-x="352" unicode="²" glyph-name="twosuperior"/>
<glyph d="M92 642l15 59q57 17 99 17q54 0 83 -22.5t29 -56.5q0 -32 -27.5 -54t-79.5 -45v-2q49 -4 75 -30.5t26 -61.5q0 -46 -49.5 -84t-105 -55t-92.5 -17q-8 3 -8 6q-1 2 -1 5q0 6 3.5 8t15.5 4q167 30 167 119q0 38 -31 52t-96 14q-17 0 -17 11q0 5 2.5 6.5t17.5 6.5 q142 42 142 102q0 18 -15.5 29t-42.5 11q-45 0 -88 -18q-19 -8 -20 -8q-2 0 -2 4z" horiz-adv-x="352" unicode="³" glyph-name="threesuperior"/>
<glyph d="M151 489h-25l138 139q31 31 48 31q13 0 22 -9t9 -22q0 -21 -27 -37z" horiz-adv-x="278" unicode="´" glyph-name="acute"/>
<glyph d="M476 85l13 -17q-107 -82 -146 -82q-34 0 -34 40q0 6 2 13.5t2 10t-4 2.5q-1 0 -30 -16.5t-64.5 -33t-53.5 -16.5q-17 0 -36 7q-3 1 -6.5 2.5t-5.5 2.5t-3 1q-3 0 -6 -16l-51 -227q-2 -10 -6 -13t-14 -3h-36q-13 0 -13 7q0 5 3 14l120 536q13 55 13 74q0 11 -10 11 q-13 0 -78 -38l-12 19q38 27 55 38t40 21.5t39 10.5q14 0 26 -9.5t12 -32.5q0 -27 -31 -151t-31 -152q0 -58 55 -58q35 0 125 39q6 2 9 16l82 341h67l-86 -358q-4 -14 -4 -26q0 -10 8 -10q6 0 19 7t24 14.5t27 18.5t20 13z" horiz-adv-x="537" unicode="µ" glyph-name="mu"/>
<glyph d="M321 -220h-106v30h87l113 890h91v-28h-71zM338 696l-66 -522q-44 12 -83.5 33.5t-74 53.5t-54.5 77t-20 98q0 110 81.5 183t216.5 77z" horiz-adv-x="519" unicode="¶" glyph-name="paragraph"/>
<glyph d="M159 211q0 -20 -14 -34t-34 -14t-34 14t-14 34t14 34t34 14t34 -14t14 -34z" horiz-adv-x="250" unicode="·" glyph-name="periodcentered"/>
<glyph d="M-12 -195l11 20q37 -15 62 -15q22 0 41.5 13.5t19.5 38.5q0 21 -14 31.5t-33 10.5q-16 0 -32 -8l-5 6l62 98h23l-40 -66q2 0 7 1.5t10 2t10 0.5q40 0 60 -21.5t20 -47.5q0 -35 -32 -60t-80 -25q-40 0 -90 21z" horiz-adv-x="278" unicode="¸" glyph-name="cedilla"/>
<glyph d="M66 298v22l75 5q4 22 15 108l31 239l-71 1v29l141 16l-49 -393l74 -5v-22q-62 2 -109 2t-107 -2z" horiz-adv-x="352" unicode="¹" glyph-name="onesuperior"/>
<glyph d="M163 444q-57 0 -86 34t-29 82q0 60 43.5 109t106.5 49q49 0 80.5 -33t31.5 -85q0 -63 -42.5 -109.5t-104.5 -46.5zM161 461q33 1 63 44t30 112q0 37 -15 59t-39 22q-37 0 -66.5 -49t-29.5 -105q0 -37 16 -59.5t41 -23.5z" horiz-adv-x="315" unicode="º" glyph-name="ordmasculine"/>
<glyph d="M254 222v-5q-11 -9 -86 -67.5t-90 -69.5q-10 -9 -15 -9q-9 0 -9 10q0 12 131 143q-72 124 -72 139q0 10 9 10q3 0 13 -10q10 -11 60 -71t59 -70zM402 222v-5q-11 -9 -86 -67.5t-90 -69.5q-10 -9 -15 -9q-9 0 -9 10q0 12 131 143q-72 124 -72 139q0 10 9 10q3 0 13 -10 q10 -11 60 -71t59 -70z" horiz-adv-x="463" unicode="»" glyph-name="guillemotright"/>
<glyph d="M607 175l23 155l-2 2l-164 -158zM579 -12l20 139h-187v26l279 262h13l-32 -239l66 1v-50h-73l-18 -139h-68zM154 -12l456 730h45l-455 -730h-46zM66 298v22l75 5q4 22 15 108l31 239l-71 1v29l141 16l-49 -393l74 -5v-22q-62 2 -109 2t-107 -2z" horiz-adv-x="833" unicode="¼" glyph-name="onequarter"/>
<glyph d="M154 -12l456 730h45l-455 -730h-46zM742 0h-115q-127 0 -164 -1v12q7 9 70.5 66.5t115 116t51.5 91.5q0 67 -77 67q-22 0 -48 -7t-43 -13.5t-20 -6.5q-2 0 -2 3q0 4 1 6l21 63q61 21 106 21q62 -1 92 -30t30 -74q0 -24 -15.5 -52.5t-44 -58.5t-53 -52t-58.5 -50.5 t-43 -36.5h182l14 42h20zM66 298v22l75 5q4 22 15 108l31 239l-71 1v29l141 16l-49 -393l74 -5v-22q-62 2 -109 2t-107 -2z" horiz-adv-x="833" unicode="½" glyph-name="onehalf"/>
<glyph d="M599 175l23 155l-2 2l-164 -158zM146 -12l456 730h45l-455 -730h-46zM571 -12l20 139h-187v26l279 262h13l-32 -239l66 1v-50h-73l-18 -139h-68zM92 642l15 59q57 17 99 17q54 0 83 -22.5t29 -56.5q0 -32 -27.5 -54t-79.5 -45v-2q49 -4 75 -30.5t26 -61.5 q0 -46 -49.5 -84t-105 -55t-92.5 -17q-8 3 -8 6q-1 2 -1 5q0 6 3.5 8t15.5 4q167 30 167 119q0 38 -31 52t-96 14q-17 0 -17 11q0 5 2.5 6.5t17.5 6.5q142 42 142 102q0 18 -15.5 29t-42.5 11q-45 0 -88 -18q-19 -8 -20 -8q-2 0 -2 4z" horiz-adv-x="833" unicode="¾" glyph-name="threequarters"/>
<glyph d="M235 275h21l-14 -167q-181 -92 -181 -172q0 -33 27.5 -59.5t91.5 -26.5q48 0 106 18l-21 -78q-67 -10 -89 -10q-91 0 -134 38.5t-43 93.5q0 40 20 74.5t58.5 61.5t65.5 41.5t69 33.5zM209 390q0 20 14 34t34 14t34 -14t14 -34t-14 -34t-34 -14t-34 14t-14 34z" horiz-adv-x="389" unicode="¿" glyph-name="questiondown"/>
<glyph d="M600 28v-30q-80 2 -115 2q-31 0 -111 -2v26q43 1 55.5 5.5t12.5 15.5q0 3 -21 92l-35 134q-2 11 -6 13.5t-18 3.5h-173q-16 0 -22 -4t-12 -15l-45 -100q-52 -113 -52 -129q0 -4 6 -7t17 -4.5t20.5 -2.5t22.5 -1.5t18 -0.5v-26q-86 2 -96 2q-19 0 -49.5 -1t-40.5 -1v30 q35 2 46 9.5t29 41.5q31 56 60 121l160 335q78 162 88 184h15q34 -133 72 -267l104 -364q11 -36 25.5 -47t44.5 -13zM199 314h155q18 0 18 6q0 3 -4 19l-59 231q-3 14 -6 14q-1 0 -9 -14l-103 -226q-8 -18 -8 -21q0 -9 16 -9zM415 749h-22l-142 110q-18 15 -18 33 q0 12 8.5 21.5t23.5 9.5q14 0 34 -22z" horiz-adv-x="611" unicode="À" glyph-name="Agrave"/>
<glyph d="M600 28v-30q-80 2 -115 2q-31 0 -111 -2v26q43 1 55.5 5.5t12.5 15.5q0 3 -21 92l-35 134q-2 11 -6 13.5t-18 3.5h-173q-16 0 -22 -4t-12 -15l-45 -100q-52 -113 -52 -129q0 -4 6 -7t17 -4.5t20.5 -2.5t22.5 -1.5t18 -0.5v-26q-86 2 -96 2q-19 0 -49.5 -1t-40.5 -1v30 q35 2 46 9.5t29 41.5q31 56 60 121l160 335q78 162 88 184h15q34 -133 72 -267l104 -364q11 -36 25.5 -47t44.5 -13zM199 314h155q18 0 18 6q0 3 -4 19l-59 231q-3 14 -6 14q-1 0 -9 -14l-103 -226q-8 -18 -8 -21q0 -9 16 -9zM318 753h-25l138 139q31 31 48 31q13 0 22 -9 t9 -22q0 -21 -27 -37z" horiz-adv-x="611" unicode="Á" glyph-name="Aacute"/>
<glyph d="M600 28v-30q-80 2 -115 2q-31 0 -111 -2v26q43 1 55.5 5.5t12.5 15.5q0 3 -21 92l-35 134q-2 11 -6 13.5t-18 3.5h-173q-16 0 -22 -4t-12 -15l-45 -100q-52 -113 -52 -129q0 -4 6 -7t17 -4.5t20.5 -2.5t22.5 -1.5t18 -0.5v-26q-86 2 -96 2q-19 0 -49.5 -1t-40.5 -1v30 q35 2 46 9.5t29 41.5q31 56 60 121l160 335q78 162 88 184h15q34 -133 72 -267l104 -364q11 -36 25.5 -47t44.5 -13zM199 314h155q18 0 18 6q0 3 -4 19l-59 231q-3 14 -6 14q-1 0 -9 -14l-103 -226q-8 -18 -8 -21q0 -9 16 -9zM200 753l152 168h48l82 -168h-23l-90 106 l-144 -106h-25z" horiz-adv-x="611" unicode="Â" glyph-name="Acircumflex"/>
<glyph d="M600 28v-30q-80 2 -115 2q-31 0 -111 -2v26q43 1 55.5 5.5t12.5 15.5q0 3 -21 92l-35 134q-2 11 -6 13.5t-18 3.5h-173q-16 0 -22 -4t-12 -15l-45 -100q-52 -113 -52 -129q0 -4 6 -7t17 -4.5t20.5 -2.5t22.5 -1.5t18 -0.5v-26q-86 2 -96 2q-19 0 -49.5 -1t-40.5 -1v30 q35 2 46 9.5t29 41.5q31 56 60 121l160 335q78 162 88 184h15q34 -133 72 -267l104 -364q11 -36 25.5 -47t44.5 -13zM199 314h155q18 0 18 6q0 3 -4 19l-59 231q-3 14 -6 14q-1 0 -9 -14l-103 -226q-8 -18 -8 -21q0 -9 16 -9zM498 882h20q-5 -17 -10.5 -30.5t-16.5 -31.5 t-30.5 -28.5t-45.5 -10.5t-70 24q-44 23 -65 23q-38 0 -56 -46h-20q26 97 96 97q26 0 74 -23q46 -24 65 -24q36 0 59 50z" horiz-adv-x="611" unicode="Ã" glyph-name="Atilde"/>
<glyph d="M600 28v-30q-80 2 -115 2q-31 0 -111 -2v26q43 1 55.5 5.5t12.5 15.5q0 3 -21 92l-35 134q-2 11 -6 13.5t-18 3.5h-173q-16 0 -22 -4t-12 -15l-45 -100q-52 -113 -52 -129q0 -4 6 -7t17 -4.5t20.5 -2.5t22.5 -1.5t18 -0.5v-26q-86 2 -96 2q-19 0 -49.5 -1t-40.5 -1v30 q35 2 46 9.5t29 41.5q31 56 60 121l160 335q78 162 88 184h15q34 -133 72 -267l104 -364q11 -36 25.5 -47t44.5 -13zM199 314h155q18 0 18 6q0 3 -4 19l-59 231q-3 14 -6 14q-1 0 -9 -14l-103 -226q-8 -18 -8 -21q0 -9 16 -9zM271 867q10 0 22.5 -9.5t12.5 -26.5 q0 -25 -27 -43t-53 -18q-9 0 -9 10q0 31 13.5 59t40.5 28zM464 867q10 0 22.5 -9.5t12.5 -26.5q0 -25 -27 -43t-53 -18q-9 0 -9 10q0 31 13.5 59t40.5 28z" horiz-adv-x="611" unicode="Ä" glyph-name="Adieresis"/>
<glyph d="M600 28v-30q-80 2 -115 2q-31 0 -111 -2v26q43 1 55.5 5.5t12.5 15.5q0 3 -21 92l-35 134q-2 11 -6 13.5t-18 3.5h-173q-16 0 -22 -4t-12 -15l-45 -100q-52 -113 -52 -129q0 -4 6 -7t17 -4.5t20.5 -2.5t22.5 -1.5t18 -0.5v-26q-86 2 -96 2q-19 0 -49.5 -1t-40.5 -1v30 q35 2 46 9.5t29 41.5q31 56 60 121l160 335q78 162 88 184h15q34 -133 72 -267l104 -364q11 -36 25.5 -47t44.5 -13zM199 314h155q18 0 18 6q0 3 -4 19l-59 231q-3 14 -6 14q-1 0 -9 -14l-103 -226q-8 -18 -8 -21q0 -9 16 -9zM456 853q0 -41 -28.5 -69.5t-68.5 -28.5 t-68.5 28.5t-28.5 69.5q0 40 28.5 68.5t68.5 28.5t68.5 -28.5t28.5 -68.5zM426 853q0 28 -19.5 47.5t-47.5 19.5t-47.5 -19.5t-19.5 -47.5t19.5 -48t47.5 -20t47.5 20t19.5 48z" horiz-adv-x="611" unicode="Å" glyph-name="Aring"/>
<glyph d="M479 700h117q112 2 277 2l-24 -166h-30q2 30 2 68q0 44 -29.5 59t-132.5 15h-126q-4 -24 -21 -151t-20 -147h67q82 0 88 7q12 10 23 69l9 47h34q-24 -133 -38 -270h-33l5 74q2 33 -6.5 41t-51.5 8h-99q-8 -49 -22 -162t-14 -131q0 -22 12.5 -30.5t53.5 -8.5h196 q24 0 36.5 9.5t25.5 40.5l48 109h30l-35 -183h-397q-71 0 -132 -3v27l70 4q4 23 40 300h-197l-180 -274q-7 -12 -7 -16q0 -6 14.5 -8t79.5 -4v-26q-130 0 -180 -3v34q27 4 47 25.5t73 98.5l345 500q9 12 9 15t-69 6v26q100 -2 142 -2zM220 352h185q4 32 12 91.5t14 108 t10 91.5q1 19 -4 19q-6 0 -12 -10z" horiz-adv-x="926" unicode="Æ" glyph-name="AE"/>
<glyph d="M669 232l-31 -172q-165 -78 -291 -78h-3l-29 -48q2 0 7 1.5t10 2t10 0.5q40 0 60 -21.5t20 -47.5q0 -35 -32 -60t-80 -25q-40 0 -90 21l11 20q37 -15 62 -15q22 0 41.5 13.5t19.5 38.5q0 21 -14 31.5t-33 10.5q-16 0 -32 -8l-5 6l51 81q-133 9 -206 100t-73 226 q0 102 44 194.5t130 153.5t194 61q54 0 113.5 -18.5t97.5 -37.5l38 -18q5 0 14 21l30 -4l-25 -190l-22 1q-46 222 -232 222q-123 0 -208.5 -114.5t-85.5 -265.5q0 -141 76.5 -222.5t177.5 -81.5q167 0 267 224z" horiz-adv-x="741" unicode="Ç" glyph-name="Ccedilla"/>
<glyph d="M166 672l-81 4v26q74 -2 161 -2q297 0 368 2l-24 -166h-31q3 45 3 68q0 33 -11 47.5t-44 20.5t-108 6h-143q-5 -27 -22 -156.5t-19 -141.5h79q81 0 87 6q12 17 23 70l10 47h33q-24 -133 -38 -270h-33l5 74q2 31 -6 40t-40 9h-123q-8 -44 -22 -159t-14 -134 q0 -25 18.5 -32t85.5 -7h188q32 0 53 50l46 109h30l-36 -183h-415q-50 0 -132 -2v26l70 4q11 68 42.5 315.5t39.5 328.5zM443 749h-22l-142 110q-18 15 -18 33q0 12 8.5 21.5t23.5 9.5q14 0 34 -22z" horiz-adv-x="667" unicode="È" glyph-name="Egrave"/>
<glyph d="M166 672l-81 4v26q74 -2 161 -2q297 0 368 2l-24 -166h-31q3 45 3 68q0 33 -11 47.5t-44 20.5t-108 6h-143q-5 -27 -22 -156.5t-19 -141.5h79q81 0 87 6q12 17 23 70l10 47h33q-24 -133 -38 -270h-33l5 74q2 31 -6 40t-40 9h-123q-8 -44 -22 -159t-14 -134 q0 -25 18.5 -32t85.5 -7h188q32 0 53 50l46 109h30l-36 -183h-415q-50 0 -132 -2v26l70 4q11 68 42.5 315.5t39.5 328.5zM346 753h-25l138 139q31 31 48 31q13 0 22 -9t9 -22q0 -21 -27 -37z" horiz-adv-x="667" unicode="É" glyph-name="Eacute"/>
<glyph d="M166 672l-81 4v26q74 -2 161 -2q297 0 368 2l-24 -166h-31q3 45 3 68q0 33 -11 47.5t-44 20.5t-108 6h-143q-5 -27 -22 -156.5t-19 -141.5h79q81 0 87 6q12 17 23 70l10 47h33q-24 -133 -38 -270h-33l5 74q2 31 -6 40t-40 9h-123q-8 -44 -22 -159t-14 -134 q0 -25 18.5 -32t85.5 -7h188q32 0 53 50l46 109h30l-36 -183h-415q-50 0 -132 -2v26l70 4q11 68 42.5 315.5t39.5 328.5zM232 753l152 168h48l82 -168h-23l-90 106l-144 -106h-25z" horiz-adv-x="667" unicode="Ê" glyph-name="Ecircumflex"/>
<glyph d="M166 672l-81 4v26q74 -2 161 -2q297 0 368 2l-24 -166h-31q3 45 3 68q0 33 -11 47.5t-44 20.5t-108 6h-143q-5 -27 -22 -156.5t-19 -141.5h79q81 0 87 6q12 17 23 70l10 47h33q-24 -133 -38 -270h-33l5 74q2 31 -6 40t-40 9h-123q-8 -44 -22 -159t-14 -134 q0 -25 18.5 -32t85.5 -7h188q32 0 53 50l46 109h30l-36 -183h-415q-50 0 -132 -2v26l70 4q11 68 42.5 315.5t39.5 328.5zM299 867q10 0 22.5 -9.5t12.5 -26.5q0 -25 -27 -43t-53 -18q-9 0 -9 10q0 31 13.5 59t40.5 28zM492 867q10 0 22.5 -9.5t12.5 -26.5q0 -25 -27 -43 t-53 -18q-9 0 -9 10q0 31 13.5 59t40.5 28z" horiz-adv-x="667" unicode="Ë" glyph-name="Edieresis"/>
<glyph d="M172 28l69 -4v-26q-64 2 -115 2q-44 0 -114 -2v26l70 4q12 74 43.5 323.5t38.5 320.5l-75 4v26q66 -2 117 -2q44 0 116 2v-26l-69 -4q-12 -76 -43.5 -323.5t-37.5 -320.5zM276 749h-22l-142 110q-18 15 -18 33q0 12 8.5 21.5t23.5 9.5q14 0 34 -22z" horiz-adv-x="333" unicode="Ì" glyph-name="Igrave"/>
<glyph d="M172 28l69 -4v-26q-64 2 -115 2q-44 0 -114 -2v26l70 4q12 74 43.5 323.5t38.5 320.5l-75 4v26q66 -2 117 -2q44 0 116 2v-26l-69 -4q-12 -76 -43.5 -323.5t-37.5 -320.5zM179 753h-25l138 139q31 31 48 31q13 0 22 -9t9 -22q0 -21 -27 -37z" horiz-adv-x="333" unicode="Í" glyph-name="Iacute"/>
<glyph d="M172 28l69 -4v-26q-64 2 -115 2q-44 0 -114 -2v26l70 4q12 74 43.5 323.5t38.5 320.5l-75 4v26q66 -2 117 -2q44 0 116 2v-26l-69 -4q-12 -76 -43.5 -323.5t-37.5 -320.5zM65 753l152 168h48l82 -168h-23l-90 106l-144 -106h-25z" horiz-adv-x="333" unicode="Î" glyph-name="Icircumflex"/>
<glyph d="M172 28l69 -4v-26q-64 2 -115 2q-44 0 -114 -2v26l70 4q12 74 43.5 323.5t38.5 320.5l-75 4v26q66 -2 117 -2q44 0 116 2v-26l-69 -4q-12 -76 -43.5 -323.5t-37.5 -320.5zM132 867q10 0 22.5 -9.5t12.5 -26.5q0 -25 -27 -43t-53 -18q-9 0 -9 10q0 31 13.5 59t40.5 28z M325 867q10 0 22.5 -9.5t12.5 -26.5q0 -25 -27 -43t-53 -18q-9 0 -9 10q0 31 13.5 59t40.5 28z" horiz-adv-x="333" unicode="Ï" glyph-name="Idieresis"/>
<glyph d="M131 344h-99v30h103q31 238 36 298l-84 2v26q26 0 162 4t158 4q155 0 248 -85t93 -238q0 -99 -35.5 -175t-96 -120.5t-133 -67t-154.5 -22.5q-251 0 -309 -2v26l69 4q21 139 42 316zM460 344h-244q-35 -278 -35 -299q0 -6 14 -11t46.5 -8.5t78.5 -3.5q106 0 185 52.5 t117 133.5t38 176q0 134 -83 217t-238 83q-50 0 -64 -5.5t-18 -22.5q-1 -6 -37 -282h240v-30z" horiz-adv-x="796" unicode="Ð" glyph-name="Eth"/>
<glyph d="M19 -2v26l69 4q13 90 31 230.5t30.5 241.5t12.5 106q-5 24 -29.5 46.5t-67.5 23.5v26q67 -2 160 -2q64 -109 194 -297t180 -268h2l63 537l-66 4v26q7 0 44.5 -1t39.5 -1t40 1t46 1v-26l-67 -4q-34 -193 -94 -684h-15q-122 194 -404 605q-2 -19 -32 -268.5t-34 -296.5 l71 -4v-26q-13 0 -42 1t-45 1q-23 0 -87 -2zM581 882h20q-5 -17 -10.5 -30.5t-16.5 -31.5t-30.5 -28.5t-45.5 -10.5t-70 24q-44 23 -65 23q-38 0 -56 -46h-20q26 97 96 97q26 0 74 -23q46 -24 65 -24q36 0 59 50z" horiz-adv-x="778" unicode="Ñ" glyph-name="Ntilde"/>
<glyph d="M43 319q0 179 111 289t274 110q74 0 133 -24t94.5 -60t58.5 -83.5t31.5 -89.5t8.5 -83q0 -77 -28.5 -148.5t-79 -126.5t-124.5 -88t-160 -33q-151 0 -235 93.5t-84 243.5zM131 304q0 -147 66 -224.5t156 -77.5q81 0 154 57t116 148t43 188q0 123 -67.5 213t-170.5 90 q-47 0 -96.5 -23.5t-95.5 -69t-75.5 -124.5t-29.5 -177zM507 749h-22l-142 110q-18 15 -18 33q0 12 8.5 21.5t23.5 9.5q14 0 34 -22z" horiz-adv-x="796" unicode="Ò" glyph-name="Ograve"/>
<glyph d="M43 319q0 179 111 289t274 110q74 0 133 -24t94.5 -60t58.5 -83.5t31.5 -89.5t8.5 -83q0 -77 -28.5 -148.5t-79 -126.5t-124.5 -88t-160 -33q-151 0 -235 93.5t-84 243.5zM131 304q0 -147 66 -224.5t156 -77.5q81 0 154 57t116 148t43 188q0 123 -67.5 213t-170.5 90 q-47 0 -96.5 -23.5t-95.5 -69t-75.5 -124.5t-29.5 -177zM410 753h-25l138 139q31 31 48 31q13 0 22 -9t9 -22q0 -21 -27 -37z" horiz-adv-x="796" unicode="Ó" glyph-name="Oacute"/>
<glyph d="M43 319q0 179 111 289t274 110q74 0 133 -24t94.5 -60t58.5 -83.5t31.5 -89.5t8.5 -83q0 -77 -28.5 -148.5t-79 -126.5t-124.5 -88t-160 -33q-151 0 -235 93.5t-84 243.5zM131 304q0 -147 66 -224.5t156 -77.5q81 0 154 57t116 148t43 188q0 123 -67.5 213t-170.5 90 q-47 0 -96.5 -23.5t-95.5 -69t-75.5 -124.5t-29.5 -177zM296 753l152 168h48l82 -168h-23l-90 106l-144 -106h-25z" horiz-adv-x="796" unicode="Ô" glyph-name="Ocircumflex"/>
<glyph d="M43 319q0 179 111 289t274 110q74 0 133 -24t94.5 -60t58.5 -83.5t31.5 -89.5t8.5 -83q0 -77 -28.5 -148.5t-79 -126.5t-124.5 -88t-160 -33q-151 0 -235 93.5t-84 243.5zM131 304q0 -147 66 -224.5t156 -77.5q81 0 154 57t116 148t43 188q0 123 -67.5 213t-170.5 90 q-47 0 -96.5 -23.5t-95.5 -69t-75.5 -124.5t-29.5 -177zM590 882h20q-5 -17 -10.5 -30.5t-16.5 -31.5t-30.5 -28.5t-45.5 -10.5t-70 24q-44 23 -65 23q-38 0 -56 -46h-20q26 97 96 97q26 0 74 -23q46 -24 65 -24q36 0 59 50z" horiz-adv-x="796" unicode="Õ" glyph-name="Otilde"/>
<glyph d="M43 319q0 179 111 289t274 110q74 0 133 -24t94.5 -60t58.5 -83.5t31.5 -89.5t8.5 -83q0 -77 -28.5 -148.5t-79 -126.5t-124.5 -88t-160 -33q-151 0 -235 93.5t-84 243.5zM131 304q0 -147 66 -224.5t156 -77.5q81 0 154 57t116 148t43 188q0 123 -67.5 213t-170.5 90 q-47 0 -96.5 -23.5t-95.5 -69t-75.5 -124.5t-29.5 -177zM363 867q10 0 22.5 -9.5t12.5 -26.5q0 -25 -27 -43t-53 -18q-9 0 -9 10q0 31 13.5 59t40.5 28zM556 867q10 0 22.5 -9.5t12.5 -26.5q0 -25 -27 -43t-53 -18q-9 0 -9 10q0 31 13.5 59t40.5 28z" horiz-adv-x="796" unicode="Ö" glyph-name="Odieresis"/>
<glyph d="M56 46l201 201l-201 200l30 31l201 -201l201 201l30 -31l-201 -200l201 -201l-30 -31l-201 201l-201 -201z" horiz-adv-x="600" unicode="×" glyph-name="multiply"/>
<glyph d="M191 88l376 554q-61 56 -139 56q-47 0 -96.5 -23.5t-95.5 -69t-75.5 -124.5t-29.5 -177q0 -134 60 -216zM593 614l-376 -555q58 -57 136 -57q81 0 154 57t116 148t43 188q0 130 -73 219zM694 764l-70 -104q68 -50 99 -128.5t31 -153.5q0 -77 -28.5 -148.5t-79 -126.5 t-124.5 -88t-160 -33q-97 0 -169 42l-76 -112h-45l90 133q-58 43 -88.5 114t-30.5 160q0 179 111 289t274 110q96 0 164 -38l57 84h45z" horiz-adv-x="796" unicode="Ø" glyph-name="Oslash"/>
<glyph d="M86 676v26q90 -2 114 -2q6 0 56.5 1t60.5 1v-26l-71 -4l-51 -360q-10 -60 -10 -119q0 -89 46.5 -135t131.5 -46q98 0 149 62t72 175q23 127 52 423l-77 4v26q19 0 40 -0.5t33.5 -1t21.5 -0.5q8 0 19.5 0.5t32 1t40.5 0.5v-26l-57 -4l-51 -330q-17 -109 -36.5 -167.5 t-62.5 -106.5q-80 -86 -198 -86q-39 0 -79 12.5t-76 37.5t-58.5 69t-22.5 100q0 60 9 131l43 340zM493 749h-22l-142 110q-18 15 -18 33q0 12 8.5 21.5t23.5 9.5q14 0 34 -22z" horiz-adv-x="759" unicode="Ù" glyph-name="Ugrave"/>
<glyph d="M86 676v26q90 -2 114 -2q6 0 56.5 1t60.5 1v-26l-71 -4l-51 -360q-10 -60 -10 -119q0 -89 46.5 -135t131.5 -46q98 0 149 62t72 175q23 127 52 423l-77 4v26q19 0 40 -0.5t33.5 -1t21.5 -0.5q8 0 19.5 0.5t32 1t40.5 0.5v-26l-57 -4l-51 -330q-17 -109 -36.5 -167.5 t-62.5 -106.5q-80 -86 -198 -86q-39 0 -79 12.5t-76 37.5t-58.5 69t-22.5 100q0 60 9 131l43 340zM396 753h-25l138 139q31 31 48 31q13 0 22 -9t9 -22q0 -21 -27 -37z" horiz-adv-x="759" unicode="Ú" glyph-name="Uacute"/>
<glyph d="M86 676v26q90 -2 114 -2q6 0 56.5 1t60.5 1v-26l-71 -4l-51 -360q-10 -60 -10 -119q0 -89 46.5 -135t131.5 -46q98 0 149 62t72 175q23 127 52 423l-77 4v26q19 0 40 -0.5t33.5 -1t21.5 -0.5q8 0 19.5 0.5t32 1t40.5 0.5v-26l-57 -4l-51 -330q-17 -109 -36.5 -167.5 t-62.5 -106.5q-80 -86 -198 -86q-39 0 -79 12.5t-76 37.5t-58.5 69t-22.5 100q0 60 9 131l43 340zM282 753l152 168h48l82 -168h-23l-90 106l-144 -106h-25z" horiz-adv-x="759" unicode="Û" glyph-name="Ucircumflex"/>
<glyph d="M86 676v26q90 -2 114 -2q6 0 56.5 1t60.5 1v-26l-71 -4l-51 -360q-10 -60 -10 -119q0 -89 46.5 -135t131.5 -46q98 0 149 62t72 175q23 127 52 423l-77 4v26q19 0 40 -0.5t33.5 -1t21.5 -0.5q8 0 19.5 0.5t32 1t40.5 0.5v-26l-57 -4l-51 -330q-17 -109 -36.5 -167.5 t-62.5 -106.5q-80 -86 -198 -86q-39 0 -79 12.5t-76 37.5t-58.5 69t-22.5 100q0 60 9 131l43 340zM349 867q10 0 22.5 -9.5t12.5 -26.5q0 -25 -27 -43t-53 -18q-9 0 -9 10q0 31 13.5 59t40.5 28zM542 867q10 0 22.5 -9.5t12.5 -26.5q0 -25 -27 -43t-53 -18q-9 0 -9 10 q0 31 13.5 59t40.5 28z" horiz-adv-x="759" unicode="Ü" glyph-name="Udieresis"/>
<glyph d="M0 676v26q85 -2 117 -2q14 0 124 2v-26q-76 -2 -76 -10q0 -4 8 -18l133 -262l137 197q53 77 53 83q0 9 -92 8v26q68 0 184 2v-30q-28 -1 -41.5 -10t-45.5 -52l-166 -225q-16 -22 -19 -40l-4 -27q-3 -26 -8 -66t-10 -83t-9.5 -82.5t-6.5 -58.5l91 -4v-26q-18 0 -64 1 t-71 1q-45 0 -135 -2v26l90 4q8 50 43 317l-136 249q-28 52 -43 64.5t-53 17.5zM290 753h-25l138 139q31 31 48 31q13 0 22 -9t9 -22q0 -21 -27 -37z" horiz-adv-x="556" unicode="Ý" glyph-name="Yacute"/>
<glyph d="M233 522l-42 -334q261 0 261 178q0 88 -63 124t-156 32zM172 28l86 -4v-26q-66 2 -122 2q-34 0 -73.5 -1t-46.5 -1v26l68 4q12 74 43.5 323.5t38.5 320.5l-75 4v26q60 -2 128 -2q34 0 75 1t46 1v-26l-86 -4q-10 -66 -18 -130q38 4 84 4q92 0 153 -43t61 -131 q0 -44 -15.5 -78.5t-44.5 -56t-61 -36t-75 -22t-76.5 -10t-73.5 -3.5q-10 -78 -16 -138z" horiz-adv-x="574" unicode="Þ" glyph-name="Thorn"/>
<glyph d="M-12 -218l-13 9q34 77 61 212l103 531q40 208 197 208q58 0 92.5 -35.5t34.5 -99.5t-33 -110.5t-88 -66.5q-11 -4 -11 -9q0 -3 17 -11q96 -50 96 -176q0 -89 -53 -166t-120 -77q-37 0 -62.5 23.5t-25.5 65.5q0 15 3.5 19.5t13.5 4.5q45 0 45 -16q0 -3 -2 -19.5t-2 -27.5 t8 -21.5t26 -10.5q36 0 68.5 96t32.5 175q0 64 -21.5 95t-67.5 33q-17 1 -23.5 1.5t-9 3t-2.5 7.5q0 7 4.5 9.5t26.5 4.5q57 5 86.5 63.5t29.5 138.5q0 45 -17 66.5t-54 21.5q-48 0 -74 -40t-40 -115l-88 -453q-2 -8 -8 -40t-12 -60t-13 -60t-13 -54.5t-10 -29.5 q-17 -31 -82 -90z" unicode="ß" glyph-name="germandbls"/>
<glyph d="M439 75l13 -19q-104 -72 -141 -72q-29 0 -29 38q0 2 1.5 17t1.5 19q-4 -2 -18 -12.5t-20.5 -15t-20.5 -13t-23 -13.5t-21.5 -10t-23.5 -7.5t-22 -2.5q-47 0 -79.5 38t-32.5 97q0 34 10.5 70.5t36 76.5t63.5 72t99 54.5t136 26.5q8 25 18 30.5t58 6.5l-60 -260 q-35 -149 -35 -154q0 -11 9 -11q4 0 21 9.5t37 21.5t22 13zM307 152l36 154q13 54 13 66q0 22 -27 22q-83 0 -157 -78t-74 -185q0 -48 22.5 -72.5t58.5 -24.5q54 0 99 45q17 16 29 73zM359 485h-22l-142 110q-18 15 -18 33q0 12 8.5 21.5t23.5 9.5q14 0 34 -22z" unicode="à" glyph-name="agrave"/>
<glyph d="M439 75l13 -19q-104 -72 -141 -72q-29 0 -29 38q0 2 1.5 17t1.5 19q-4 -2 -18 -12.5t-20.5 -15t-20.5 -13t-23 -13.5t-21.5 -10t-23.5 -7.5t-22 -2.5q-47 0 -79.5 38t-32.5 97q0 34 10.5 70.5t36 76.5t63.5 72t99 54.5t136 26.5q8 25 18 30.5t58 6.5l-60 -260 q-35 -149 -35 -154q0 -11 9 -11q4 0 21 9.5t37 21.5t22 13zM307 152l36 154q13 54 13 66q0 22 -27 22q-83 0 -157 -78t-74 -185q0 -48 22.5 -72.5t58.5 -24.5q54 0 99 45q17 16 29 73zM262 489h-25l138 139q31 31 48 31q13 0 22 -9t9 -22q0 -21 -27 -37z" unicode="á" glyph-name="aacute"/>
<glyph d="M439 75l13 -19q-104 -72 -141 -72q-29 0 -29 38q0 2 1.5 17t1.5 19q-4 -2 -18 -12.5t-20.5 -15t-20.5 -13t-23 -13.5t-21.5 -10t-23.5 -7.5t-22 -2.5q-47 0 -79.5 38t-32.5 97q0 34 10.5 70.5t36 76.5t63.5 72t99 54.5t136 26.5q8 25 18 30.5t58 6.5l-60 -260 q-35 -149 -35 -154q0 -11 9 -11q4 0 21 9.5t37 21.5t22 13zM307 152l36 154q13 54 13 66q0 22 -27 22q-83 0 -157 -78t-74 -185q0 -48 22.5 -72.5t58.5 -24.5q54 0 99 45q17 16 29 73zM148 489l152 168h48l82 -168h-23l-90 106l-144 -106h-25z" unicode="â" glyph-name="acircumflex"/>
<glyph d="M439 75l13 -19q-104 -72 -141 -72q-29 0 -29 38q0 2 1.5 17t1.5 19q-4 -2 -18 -12.5t-20.5 -15t-20.5 -13t-23 -13.5t-21.5 -10t-23.5 -7.5t-22 -2.5q-47 0 -79.5 38t-32.5 97q0 34 10.5 70.5t36 76.5t63.5 72t99 54.5t136 26.5q8 25 18 30.5t58 6.5l-60 -260 q-35 -149 -35 -154q0 -11 9 -11q4 0 21 9.5t37 21.5t22 13zM307 152l36 154q13 54 13 66q0 22 -27 22q-83 0 -157 -78t-74 -185q0 -48 22.5 -72.5t58.5 -24.5q54 0 99 45q17 16 29 73zM442 618h20q-5 -17 -10.5 -30.5t-16.5 -31.5t-30.5 -28.5t-45.5 -10.5t-70 24 q-44 23 -65 23q-38 0 -56 -46h-20q26 97 96 97q26 0 74 -23q46 -24 65 -24q36 0 59 50z" unicode="ã" glyph-name="atilde"/>
<glyph d="M439 75l13 -19q-104 -72 -141 -72q-29 0 -29 38q0 2 1.5 17t1.5 19q-4 -2 -18 -12.5t-20.5 -15t-20.5 -13t-23 -13.5t-21.5 -10t-23.5 -7.5t-22 -2.5q-47 0 -79.5 38t-32.5 97q0 34 10.5 70.5t36 76.5t63.5 72t99 54.5t136 26.5q8 25 18 30.5t58 6.5l-60 -260 q-35 -149 -35 -154q0 -11 9 -11q4 0 21 9.5t37 21.5t22 13zM307 152l36 154q13 54 13 66q0 22 -27 22q-83 0 -157 -78t-74 -185q0 -48 22.5 -72.5t58.5 -24.5q54 0 99 45q17 16 29 73zM215 603q10 0 22.5 -9.5t12.5 -26.5q0 -25 -27 -43t-53 -18q-9 0 -9 10q0 31 13.5 59 t40.5 28zM408 603q10 0 22.5 -9.5t12.5 -26.5q0 -25 -27 -43t-53 -18q-9 0 -9 10q0 31 13.5 59t40.5 28z" unicode="ä" glyph-name="adieresis"/>
<glyph d="M439 75l13 -19q-104 -72 -141 -72q-29 0 -29 38q0 2 1.5 17t1.5 19q-4 -2 -18 -12.5t-20.5 -15t-20.5 -13t-23 -13.5t-21.5 -10t-23.5 -7.5t-22 -2.5q-47 0 -79.5 38t-32.5 97q0 34 10.5 70.5t36 76.5t63.5 72t99 54.5t136 26.5q8 25 18 30.5t58 6.5l-60 -260 q-35 -149 -35 -154q0 -11 9 -11q4 0 21 9.5t37 21.5t22 13zM307 152l36 154q13 54 13 66q0 22 -27 22q-83 0 -157 -78t-74 -185q0 -48 22.5 -72.5t58.5 -24.5q54 0 99 45q17 16 29 73zM418 589q0 -41 -28.5 -69.5t-68.5 -28.5t-68.5 28.5t-28.5 69.5q0 40 28.5 68.5 t68.5 28.5t68.5 -28.5t28.5 -68.5zM388 589q0 28 -19.5 47.5t-47.5 19.5t-47.5 -19.5t-19.5 -47.5t19.5 -48t47.5 -20t47.5 20t19.5 48z" unicode="å" glyph-name="aring"/>
<glyph d="M264 108l54 240q4 16 4 26q0 20 -20 20q-27 0 -62 -19t-68.5 -51t-56.5 -83.5t-23 -109.5q0 -48 22.5 -72.5t57.5 -24.5q27 0 45 7t27.5 21.5t12.5 22.5t7 23zM595 132l17 -13q-81 -135 -184 -135q-27 0 -50 8t-37.5 20t-25 24t-16.5 20t-7 8q-4 0 -32 -20t-65.5 -40 t-65.5 -20q-47 0 -79 38t-32 97q0 33 10 68.5t33.5 74t58.5 70t90.5 55.5t123.5 32q4 23 14.5 29.5t56.5 7.5l-11 -59q-2 -9 3 -10l8 5q8 6 21 13t29.5 14.5t39.5 13t46 5.5q51 0 75 -21.5t24 -51.5q0 -24 -14.5 -48.5t-34.5 -43.5t-59.5 -44.5t-70.5 -42.5t-87 -47 q-21 -14 -22 -18q0 -30 29 -56.5t71 -26.5q71 0 143 94zM532 416q-59 0 -121.5 -78t-62.5 -175q0 -11 4 -11q2 0 25 12t56 34.5t65.5 48.5t55 59.5t22.5 62.5q0 47 -44 47z" horiz-adv-x="667" unicode="æ" glyph-name="ae"/>
<glyph d="M332 125l15 -13q-74 -120 -169 -127l-31 -51q2 0 7 1.5t10 2t10 0.5q40 0 60 -21.5t20 -47.5q0 -35 -32 -60t-80 -25q-40 0 -90 21l11 20q37 -15 62 -15q22 0 41.5 13.5t19.5 38.5q0 21 -14 31.5t-33 10.5q-16 0 -32 -8l-5 6l53 83q-64 4 -99.5 53t-35.5 120 q0 108 69 194t171 86q56 0 86 -26t30 -61q0 -25 -17 -44t-53 -19q-17 0 -17 12q0 5 13.5 41t13.5 47q0 28 -44 28q-76 0 -126 -82.5t-50 -175.5q0 -57 25 -89.5t71 -32.5q28 0 54.5 14t43 30t42.5 45z" horiz-adv-x="407" unicode="ç" glyph-name="ccedilla"/>
<glyph d="M330 131l17 -11q-19 -29 -33 -46.5t-38 -41.5t-53 -36t-63 -12q-69 0 -105.5 49.5t-36.5 121.5q0 108 74 195.5t184 87.5q48 0 72 -21t24 -52q0 -11 -1.5 -20t-15 -32t-37 -45t-74.5 -55t-121 -68q-20 -10 -24 -13.5t-4 -9.5q0 -7 3.5 -19t12 -27.5t29 -26.5t48.5 -11 q75 0 142 93zM267 416q-67 0 -122 -82.5t-55 -169.5q0 -10 7 -9q3 1 23 12.5t52.5 33.5t62.5 47.5t51.5 58t21.5 61.5q0 48 -41 48zM313 485h-22l-142 110q-18 15 -18 33q0 12 8.5 21.5t23.5 9.5q14 0 34 -22z" horiz-adv-x="407" unicode="è" glyph-name="egrave"/>
<glyph d="M330 131l17 -11q-19 -29 -33 -46.5t-38 -41.5t-53 -36t-63 -12q-69 0 -105.5 49.5t-36.5 121.5q0 108 74 195.5t184 87.5q48 0 72 -21t24 -52q0 -11 -1.5 -20t-15 -32t-37 -45t-74.5 -55t-121 -68q-20 -10 -24 -13.5t-4 -9.5q0 -7 3.5 -19t12 -27.5t29 -26.5t48.5 -11 q75 0 142 93zM267 416q-67 0 -122 -82.5t-55 -169.5q0 -10 7 -9q3 1 23 12.5t52.5 33.5t62.5 47.5t51.5 58t21.5 61.5q0 48 -41 48zM216 489h-25l138 139q31 31 48 31q13 0 22 -9t9 -22q0 -21 -27 -37z" horiz-adv-x="407" unicode="é" glyph-name="eacute"/>
<glyph d="M330 131l17 -11q-19 -29 -33 -46.5t-38 -41.5t-53 -36t-63 -12q-69 0 -105.5 49.5t-36.5 121.5q0 108 74 195.5t184 87.5q48 0 72 -21t24 -52q0 -11 -1.5 -20t-15 -32t-37 -45t-74.5 -55t-121 -68q-20 -10 -24 -13.5t-4 -9.5q0 -7 3.5 -19t12 -27.5t29 -26.5t48.5 -11 q75 0 142 93zM267 416q-67 0 -122 -82.5t-55 -169.5q0 -10 7 -9q3 1 23 12.5t52.5 33.5t62.5 47.5t51.5 58t21.5 61.5q0 48 -41 48zM102 489l152 168h48l82 -168h-23l-90 106l-144 -106h-25z" horiz-adv-x="407" unicode="ê" glyph-name="ecircumflex"/>
<glyph d="M330 131l17 -11q-19 -29 -33 -46.5t-38 -41.5t-53 -36t-63 -12q-69 0 -105.5 49.5t-36.5 121.5q0 108 74 195.5t184 87.5q48 0 72 -21t24 -52q0 -11 -1.5 -20t-15 -32t-37 -45t-74.5 -55t-121 -68q-20 -10 -24 -13.5t-4 -9.5q0 -7 3.5 -19t12 -27.5t29 -26.5t48.5 -11 q75 0 142 93zM267 416q-67 0 -122 -82.5t-55 -169.5q0 -10 7 -9q3 1 23 12.5t52.5 33.5t62.5 47.5t51.5 58t21.5 61.5q0 48 -41 48zM169 603q10 0 22.5 -9.5t12.5 -26.5q0 -25 -27 -43t-53 -18q-9 0 -9 10q0 31 13.5 59t40.5 28zM362 603q10 0 22.5 -9.5t12.5 -26.5 q0 -25 -27 -43t-53 -18q-9 0 -9 10q0 31 13.5 59t40.5 28z" horiz-adv-x="407" unicode="ë" glyph-name="edieresis"/>
<glyph d="M49 355l-11 18q4 4 23.5 18t52 30.5t53.5 16.5q19 0 27.5 -10.5t8.5 -23.5q0 -20 -41 -187t-41 -174q0 -12 9 -12q4 0 43 24q18 11 30 18l12 -19q-92 -66 -130 -66q-17 0 -26.5 10t-9.5 26q0 8 41 173t41 188q0 11 -8 11t-74 -41zM244 485h-22l-142 110q-18 15 -18 33 q0 12 8.5 21.5t23.5 9.5q14 0 34 -22z" horiz-adv-x="278" unicode="ì" glyph-name="igrave"/>
<glyph d="M49 355l-11 18q4 4 23.5 18t52 30.5t53.5 16.5q19 0 27.5 -10.5t8.5 -23.5q0 -20 -41 -187t-41 -174q0 -12 9 -12q4 0 43 24q18 11 30 18l12 -19q-92 -66 -130 -66q-17 0 -26.5 10t-9.5 26q0 8 41 173t41 188q0 11 -8 11t-74 -41zM147 489h-25l138 139q31 31 48 31 q13 0 22 -9t9 -22q0 -21 -27 -37z" horiz-adv-x="278" unicode="í" glyph-name="iacute"/>
<glyph d="M49 355l-11 18q4 4 23.5 18t52 30.5t53.5 16.5q19 0 27.5 -10.5t8.5 -23.5q0 -20 -41 -187t-41 -174q0 -12 9 -12q4 0 43 24q18 11 30 18l12 -19q-92 -66 -130 -66q-17 0 -26.5 10t-9.5 26q0 8 41 173t41 188q0 11 -8 11t-74 -41zM33 489l152 168h48l82 -168h-23l-90 106 l-144 -106h-25z" horiz-adv-x="278" unicode="î" glyph-name="icircumflex"/>
<glyph d="M49 355l-11 18q4 4 23.5 18t52 30.5t53.5 16.5q19 0 27.5 -10.5t8.5 -23.5q0 -20 -41 -187t-41 -174q0 -12 9 -12q4 0 43 24q18 11 30 18l12 -19q-92 -66 -130 -66q-17 0 -26.5 10t-9.5 26q0 8 41 173t41 188q0 11 -8 11t-74 -41zM104 603q10 0 22.5 -9.5t12.5 -26.5 q0 -25 -27 -43t-53 -18q-9 0 -9 10q0 31 13.5 59t40.5 28zM297 603q10 0 22.5 -9.5t12.5 -26.5q0 -25 -27 -43t-53 -18q-9 0 -9 10q0 31 13.5 59t40.5 28z" horiz-adv-x="278" unicode="ï" glyph-name="idieresis"/>
<glyph d="M243 576l-151 -58l-9 25l148 57l-59 118l60 24l60 -119l148 57l8 -25l-143 -56q65 -129 89 -194.5t24 -140.5q0 -121 -64.5 -200.5t-164.5 -79.5q-77 0 -124 53t-47 139q0 101 64 181.5t150 80.5q27 0 66 -12q3 -1 6 -1q5 0 5 4q0 8 -66 147zM90 145q0 -62 25 -100.5 t71 -38.5q69 0 114.5 83t45.5 185q0 60 -23.5 101t-69.5 41q-64 0 -113.5 -87t-49.5 -184z" horiz-adv-x="463" unicode="ð" glyph-name="eth"/>
<glyph d="M36 356l-12 19q51 37 75.5 50t44.5 13q44 0 44 -60q0 -5 -0.5 -9.5t-0.5 -8t-0.5 -6.5t-0.5 -5v-3.5t0.5 -2t1.5 -0.5l36 23q37 24 86.5 48t82.5 24q31 0 49 -20t18 -47q0 -29 -36.5 -173t-36.5 -157q0 -9 8 -9q11 0 82 51l14 -18q-85 -73 -131 -73q-17 0 -29 10.5 t-12 30.5q0 21 36.5 159t36.5 167t-44 29q-33 0 -74.5 -16.5t-64.5 -32.5q-16 -10 -23 -25t-16 -57l-54 -257h-68l68 319q8 38 8 54q0 19 -16 19q-18 0 -72 -36zM461 618h20q-5 -17 -10.5 -30.5t-16.5 -31.5t-30.5 -28.5t-45.5 -10.5t-70 24q-44 23 -65 23q-38 0 -56 -46 h-20q26 97 96 97q26 0 74 -23q46 -24 65 -24q36 0 59 50z" horiz-adv-x="537" unicode="ñ" glyph-name="ntilde"/>
<glyph d="M18 176q0 100 66 181t163 81q75 0 123 -54.5t48 -140.5q0 -105 -65 -182t-161 -77q-87 0 -130.5 57t-43.5 135zM90 145q0 -62 25 -100.5t71 -38.5q69 0 114.5 83t45.5 185q0 60 -23.5 101t-69.5 41q-64 0 -113.5 -87t-49.5 -184zM341 485h-22l-142 110q-18 15 -18 33 q0 12 8.5 21.5t23.5 9.5q14 0 34 -22z" horiz-adv-x="463" unicode="ò" glyph-name="ograve"/>
<glyph d="M18 176q0 100 66 181t163 81q75 0 123 -54.5t48 -140.5q0 -105 -65 -182t-161 -77q-87 0 -130.5 57t-43.5 135zM90 145q0 -62 25 -100.5t71 -38.5q69 0 114.5 83t45.5 185q0 60 -23.5 101t-69.5 41q-64 0 -113.5 -87t-49.5 -184zM244 489h-25l138 139q31 31 48 31 q13 0 22 -9t9 -22q0 -21 -27 -37z" horiz-adv-x="463" unicode="ó" glyph-name="oacute"/>
<glyph d="M18 176q0 100 66 181t163 81q75 0 123 -54.5t48 -140.5q0 -105 -65 -182t-161 -77q-87 0 -130.5 57t-43.5 135zM90 145q0 -62 25 -100.5t71 -38.5q69 0 114.5 83t45.5 185q0 60 -23.5 101t-69.5 41q-64 0 -113.5 -87t-49.5 -184zM130 489l152 168h48l82 -168h-23l-90 106 l-144 -106h-25z" horiz-adv-x="463" unicode="ô" glyph-name="ocircumflex"/>
<glyph d="M18 176q0 100 66 181t163 81q75 0 123 -54.5t48 -140.5q0 -105 -65 -182t-161 -77q-87 0 -130.5 57t-43.5 135zM90 145q0 -62 25 -100.5t71 -38.5q69 0 114.5 83t45.5 185q0 60 -23.5 101t-69.5 41q-64 0 -113.5 -87t-49.5 -184zM424 618h20q-5 -17 -10.5 -30.5 t-16.5 -31.5t-30.5 -28.5t-45.5 -10.5t-70 24q-44 23 -65 23q-38 0 -56 -46h-20q26 97 96 97q26 0 74 -23q46 -24 65 -24q36 0 59 50z" horiz-adv-x="463" unicode="õ" glyph-name="otilde"/>
<glyph d="M18 176q0 100 66 181t163 81q75 0 123 -54.5t48 -140.5q0 -105 -65 -182t-161 -77q-87 0 -130.5 57t-43.5 135zM90 145q0 -62 25 -100.5t71 -38.5q69 0 114.5 83t45.5 185q0 60 -23.5 101t-69.5 41q-64 0 -113.5 -87t-49.5 -184zM197 603q10 0 22.5 -9.5t12.5 -26.5 q0 -25 -27 -43t-53 -18q-9 0 -9 10q0 31 13.5 59t40.5 28zM390 603q10 0 22.5 -9.5t12.5 -26.5q0 -25 -27 -43t-53 -18q-9 0 -9 10q0 31 13.5 59t40.5 28z" horiz-adv-x="463" unicode="ö" glyph-name="odieresis"/>
<glyph d="M40 225v43h493v-43h-493zM329 422q0 -17 -12.5 -29.5t-29.5 -12.5t-29.5 12.5t-12.5 29.5t12.5 29.5t29.5 12.5t29.5 -12.5t12.5 -29.5zM329 71q0 -17 -12.5 -29.5t-29.5 -12.5t-29.5 12.5t-12.5 29.5t12.5 29.5t29.5 12.5t29.5 -12.5t12.5 -29.5z" horiz-adv-x="600" unicode="÷" glyph-name="divide"/>
<glyph d="M102 70l214 313q-22 33 -63 33q-64 0 -113.5 -87t-49.5 -184q0 -43 12 -75zM333 353l-214 -313q25 -34 67 -34q69 0 114.5 83t45.5 185q0 47 -13 79zM408 518h37l-85 -125q58 -55 58 -150q0 -105 -65 -182t-161 -77q-53 0 -94 26l-80 -117h-37l93 136q-56 52 -56 147 q0 100 66 181t163 81q50 0 89 -25z" horiz-adv-x="463" unicode="ø" glyph-name="oslash"/>
<glyph d="M476 85l13 -17q-107 -82 -146 -82q-34 0 -34 40q0 6 2 13.5t2 10t-4 2.5l-30 -16q-30 -17 -71 -33.5t-68 -16.5q-32 0 -54 22t-22 74q0 38 28 153t28 136q0 11 -10 11q-13 0 -78 -38l-12 19q38 27 55 38t40 21.5t39 10.5q14 0 26 -9.5t12 -32.5q0 -27 -31 -151t-31 -152 q0 -58 55 -58q35 0 125 39q6 2 9 16l82 341h67l-86 -358q-4 -14 -4 -26q0 -10 8 -10q6 0 19 7t24 14.5t27 18.5t20 13zM378 485h-22l-142 110q-18 15 -18 33q0 12 8.5 21.5t23.5 9.5q14 0 34 -22z" horiz-adv-x="537" unicode="ù" glyph-name="ugrave"/>
<glyph d="M476 85l13 -17q-107 -82 -146 -82q-34 0 -34 40q0 6 2 13.5t2 10t-4 2.5l-30 -16q-30 -17 -71 -33.5t-68 -16.5q-32 0 -54 22t-22 74q0 38 28 153t28 136q0 11 -10 11q-13 0 -78 -38l-12 19q38 27 55 38t40 21.5t39 10.5q14 0 26 -9.5t12 -32.5q0 -27 -31 -151t-31 -152 q0 -58 55 -58q35 0 125 39q6 2 9 16l82 341h67l-86 -358q-4 -14 -4 -26q0 -10 8 -10q6 0 19 7t24 14.5t27 18.5t20 13zM281 489h-25l138 139q31 31 48 31q13 0 22 -9t9 -22q0 -21 -27 -37z" horiz-adv-x="537" unicode="ú" glyph-name="uacute"/>
<glyph d="M476 85l13 -17q-107 -82 -146 -82q-34 0 -34 40q0 6 2 13.5t2 10t-4 2.5l-30 -16q-30 -17 -71 -33.5t-68 -16.5q-32 0 -54 22t-22 74q0 38 28 153t28 136q0 11 -10 11q-13 0 -78 -38l-12 19q38 27 55 38t40 21.5t39 10.5q14 0 26 -9.5t12 -32.5q0 -27 -31 -151t-31 -152 q0 -58 55 -58q35 0 125 39q6 2 9 16l82 341h67l-86 -358q-4 -14 -4 -26q0 -10 8 -10q6 0 19 7t24 14.5t27 18.5t20 13zM167 489l152 168h48l82 -168h-23l-90 106l-144 -106h-25z" horiz-adv-x="537" unicode="û" glyph-name="ucircumflex"/>
<glyph d="M476 85l13 -17q-107 -82 -146 -82q-34 0 -34 40q0 6 2 13.5t2 10t-4 2.5l-30 -16q-30 -17 -71 -33.5t-68 -16.5q-32 0 -54 22t-22 74q0 38 28 153t28 136q0 11 -10 11q-13 0 -78 -38l-12 19q38 27 55 38t40 21.5t39 10.5q14 0 26 -9.5t12 -32.5q0 -27 -31 -151t-31 -152 q0 -58 55 -58q35 0 125 39q6 2 9 16l82 341h67l-86 -358q-4 -14 -4 -26q0 -10 8 -10q6 0 19 7t24 14.5t27 18.5t20 13zM234 603q10 0 22.5 -9.5t12.5 -26.5q0 -25 -27 -43t-53 -18q-9 0 -9 10q0 31 13.5 59t40.5 28zM427 603q10 0 22.5 -9.5t12.5 -26.5q0 -25 -27 -43 t-53 -18q-9 0 -9 10q0 31 13.5 59t40.5 28z" horiz-adv-x="537" unicode="ü" glyph-name="udieresis"/>
<glyph d="M6 358l-14 19q65 61 100 61q21 0 39 -16t30.5 -47t22.5 -61.5t16.5 -74t10.5 -69t7.5 -62t3.5 -37.5h2q77 128 106 190t29 94q0 25 -15.5 34t-49.5 13l-2 16q35 28 61 28q21 0 34.5 -17.5t13.5 -40.5q0 -43 -29 -99.5t-121 -206.5q-172 -279 -233 -358l-29 43 q40 36 67.5 65.5t41.5 48t40 55.5q13 19 16.5 29t3.5 30q0 85 -29 237t-72 152q-21 0 -51 -26zM219 489h-25l138 139q31 31 48 31q13 0 22 -9t9 -22q0 -21 -27 -37z" horiz-adv-x="426" unicode="ý" glyph-name="yacute"/>
<glyph d="M113 4l-56 -264h-53q-15 0 -11 16l168 812q21 89 21 111q0 10 -12 10q-15 0 -57 -6v29l165 30q-38 -145 -45 -174l-39 -185q-2 -4 -2 -9q0 -3 2 -3q9 5 31.5 20.5t35.5 23.5t33.5 15.5t39.5 7.5q51 0 84.5 -44t33.5 -122q0 -108 -67 -197t-172 -89q-48 0 -100 18z M173 286l-56 -263q34 -9 57 -9q66 0 114 41.5t68 96.5t20 111q0 66 -27.5 93.5t-58.5 27.5q-21 0 -53.5 -14t-44.5 -29q-9 -11 -19 -55z" unicode="þ" glyph-name="thorn"/>
</font>
</defs>
</svg>
