<svg xmlns="http://www.w3.org/2000/svg" viewBox="0 0 137 30"><defs><style>.a{fill:#fff;}</style></defs><title>cadillac-fairview</title><path class="a" d="M48.84,14.47c-.33.4-.33.55,0,1l3.94,4.65c.18.22.38.4.7.29s.32-.39.32-.67V9.93a.42.42,0,0,0-.27-.42.47.47,0,0,0-.53.07,1.31,1.31,0,0,0-.2.21l-4,4.68M32.19,11.14c0-.2,0-.4,0-.61,0-2.39,0-4.78,0-7.16,0-.62,0-1.23,0-1.85A1.1,1.1,0,0,0,31,.33H14.51A14,14,0,0,0,4.1,4.78a14.72,14.72,0,0,0-4,9,13.66,13.66,0,0,0,.63,5.53A14.61,14.61,0,0,0,7.6,27.82a13.42,13.42,0,0,0,6.81,1.74H27c1.31,0,2.62,0,3.93,0a1.11,1.11,0,0,0,1.22-1.25c0-3,0-6,0-9a6.08,6.08,0,0,0,0-.61.65.65,0,0,0-.65-.61.81.81,0,0,0-.73.37c-.25.33-.49.66-.74,1-1.54,2-3.07,4-4.8,5.86a16.32,16.32,0,0,1-2.58,2.33,4.65,4.65,0,0,1-1.5.73,1.68,1.68,0,0,1-1.7-.43,5.13,5.13,0,0,1-1-1.26,11.44,11.44,0,0,1-.92-2.4,31.82,31.82,0,0,1-1-6.5,45.8,45.8,0,0,1,0-5.24,36.27,36.27,0,0,1,.68-5.39,14,14,0,0,1,1.3-3.82,4.68,4.68,0,0,1,1-1.32,1.63,1.63,0,0,1,1.52-.38,3.79,3.79,0,0,1,1.58.75,23.14,23.14,0,0,1,1.78,1.5A36,36,0,0,1,27.65,7.4c1,1.3,2,2.62,3,3.92a1.52,1.52,0,0,0,.4.4.7.7,0,0,0,1.11-.58M60.8,9.65l0-7.86C60.77.7,60.4.33,59.33.32H55.68c-6.1,0-12.2,0-18.3,0-1.32,0-1.82.25-1.81,1.82,0,4.26,0,8.52,0,12.78V28a4,4,0,0,0,0,.49,1.09,1.09,0,0,0,1.06,1.05h9.62a3.63,3.63,0,0,0,.57,0,1,1,0,0,0,.9-1c0-.21,0-.41,0-.62V4.65c0-.5,0-1,.06-1.51A2.92,2.92,0,0,1,48,2.43a1.49,1.49,0,0,1,1.78-.88,4.77,4.77,0,0,1,1,.34A8,8,0,0,1,52.6,3.28a28.82,28.82,0,0,1,3,3.27c1.24,1.57,2.45,3.17,3.68,4.76a1.86,1.86,0,0,0,.36.38.75.75,0,0,0,.81.07.63.63,0,0,0,.36-.64c0-.49,0-1,0-1.47m39.66-.94c0-.61,0-1.23,0-1.84a.94.94,0,0,0-.32-.76A3.66,3.66,0,0,0,97.33,5a2.65,2.65,0,0,0-2.19,1.17,4.62,4.62,0,0,0,0,5.16,2.63,2.63,0,0,0,1.71,1.1,3.68,3.68,0,0,0,3.37-1.16.81.81,0,0,0,.24-.63c0-.62,0-1.25,0-1.88m0-3.42V.17h1.42a5.11,5.11,0,0,1,0,.53V13.46h-1.45V12.18c-.21,0-.25.14-.34.23a4.12,4.12,0,0,1-4.95.84,3.72,3.72,0,0,1-1.84-2.06,6.82,6.82,0,0,1,0-5,4,4,0,0,1,6.56-1.44c.16.16.32.3.55.51M80.66,2.62l-1.27.73-.16-.15a4.62,4.62,0,0,0-5.71-1.3,4.82,4.82,0,0,0-2.78,3.25A6,6,0,0,0,71,9.47a4.86,4.86,0,0,0,4.68,2.92,4.3,4.3,0,0,0,3.48-1.69c0-.07.11-.13.18-.21l1.33.75a5.53,5.53,0,0,1-3.76,2.39,7.56,7.56,0,0,1-3.28-.19A6.29,6.29,0,0,1,69.1,8.65,7.14,7.14,0,0,1,69.46,4,6.31,6.31,0,0,1,74.14.17,6.56,6.56,0,0,1,78,.42a6.16,6.16,0,0,1,2.67,2.09s0,.05,0,.11M125,20.38q1.09,3.6,2.2,7.18h.09c0-.13.11-.25.15-.39l2.1-6.32a1.63,1.63,0,0,1,.11-.31.4.4,0,0,1,.23-.18c.33,0,.65,0,1,0,.81,2.43,1.61,4.83,2.4,7.23h.09c.05-.12.09-.25.13-.37q1-3.21,2-6.41c.14-.44.14-.44.59-.45h1c-1,3.09-1.94,6.09-2.9,9.12h-1.43l-1.2-3.65c-.4-1.2-.78-2.4-1.19-3.59h-.1l-2.35,7.23h-1.38l-2.89-9.08Zm-.45-9.81a4.68,4.68,0,0,1,0-.53.82.82,0,0,0-.33-.78,3.41,3.41,0,0,0-3.29-.72,2,2,0,0,0-1.46,1.91,2.11,2.11,0,0,0,1.2,2,2.81,2.81,0,0,0,1.48.23,3.36,3.36,0,0,0,2.05-.8.9.9,0,0,0,.35-.83,4,4,0,0,1,0-.49m-5.4-4.42-.64-1a4.88,4.88,0,0,1,2-1.27,5.55,5.55,0,0,1,3.42-.08A2.79,2.79,0,0,1,126,6.31a6.54,6.54,0,0,1,.06.89v6.31a9.51,9.51,0,0,1-1.51,0V12.4c-.18.16-.29.24-.39.34a4.2,4.2,0,0,1-4.52.57A3,3,0,0,1,118,10.63a2.9,2.9,0,0,1,1.55-2.77,4.05,4.05,0,0,1,2.86-.37,3.79,3.79,0,0,1,1.92.95c0,.05.12.09.22.17a2.39,2.39,0,0,0,0-.31c0-.49,0-1,0-1.47a1.71,1.71,0,0,0-1.1-1.67,3.63,3.63,0,0,0-3.68.47,8.18,8.18,0,0,0-.64.52M88.91,10.56a4.68,4.68,0,0,1,0-.53.81.81,0,0,0-.34-.78,3.43,3.43,0,0,0-3.1-.76,2,2,0,0,0-1.6,1.7A2.1,2.1,0,0,0,85,12.46a2.7,2.7,0,0,0,1.48.23,3.27,3.27,0,0,0,2.08-.84.79.79,0,0,0,.31-.71,5.61,5.61,0,0,1,0-.58M89,8.64c0-.74,0-1.41,0-2.07a1.63,1.63,0,0,0-1.08-1.42,3.62,3.62,0,0,0-3.64.46c-.23.15-.43.34-.68.54l-.63-.94a4.7,4.7,0,0,1,2-1.29,5.7,5.7,0,0,1,3.42-.07,2.85,2.85,0,0,1,2.11,2.63,4.64,4.64,0,0,1,0,.53v6.5a9.14,9.14,0,0,1-1.48,0v-1l-.09,0-.31.27A4.2,4.2,0,0,1,84,13.3a3,3,0,0,1-1.65-2.68,2.9,2.9,0,0,1,1.49-2.73,4,4,0,0,1,2.89-.41,3.88,3.88,0,0,1,2,1,1.41,1.41,0,0,0,.22.17m-19.6,8.27h8.2v1.32H71a26,26,0,0,0,0,4.16c2.16,0,4.34,0,6.53,0v1.3l-.47,0H70.88c0,.52,0,1,0,1.47v4.28h-1.5ZM121,24.39a3,3,0,1,0-6,0Zm.23,3.22c.18.26.38.53.6.82-.09.09-.15.17-.23.24a4,4,0,0,1-2.08,1,7.37,7.37,0,0,1-2.48,0,4.31,4.31,0,0,1-3.4-3.28,5,5,0,0,1,.21-3.36,4.4,4.4,0,0,1,8.38.6,8.51,8.51,0,0,1,.17,1c0,.26,0,.52,0,.82l-.48,0h-6.43l-.53,0c0,.2,0,.36.08.51a3.27,3.27,0,0,0,2.58,2.65,4,4,0,0,0,3.21-.77l.32-.25h.08m-35.65-.89a4,4,0,0,1,0-.49.86.86,0,0,0-.34-.79,3.21,3.21,0,0,0-3.1-.68,2,2,0,0,0-1.16,2.92,2.1,2.1,0,0,0,1.85,1.09c.21,0,.41,0,.62,0a3,3,0,0,0,1.67-.68,1,1,0,0,0,.46-1,1.82,1.82,0,0,1,0-.33m-5.18-4.15-.61-.88.06-.12a5.06,5.06,0,0,1,5.5-1A2.65,2.65,0,0,1,86.9,23c0,.46,0,.92,0,1.39V29.5H85.56c0-.3,0-.62,0-1l-.3.23a4,4,0,0,1-3.89.83,2.92,2.92,0,0,1-2.09-3,3,3,0,0,1,2.3-2.7,4.53,4.53,0,0,1,2.65.19,3.08,3.08,0,0,1,1,.63l.32.27c0-.14,0-.23,0-.32,0-.39,0-.79,0-1.18a2,2,0,0,0-2-2.1,3.7,3.7,0,0,0-3,1.05l-.21.18M136.78,5.36l-.91.86a1.62,1.62,0,0,0-.12-.16,3.25,3.25,0,0,0-5.52,1.14,4.62,4.62,0,0,0,0,3.09A3.25,3.25,0,0,0,135.11,12c.27-.19.51-.44.79-.68l.91.83-.28.34a3.91,3.91,0,0,1-2.6,1.24,4.94,4.94,0,0,1-3.46-.82,4.75,4.75,0,0,1-1.91-3.18,5.85,5.85,0,0,1,.14-2.63,4.57,4.57,0,0,1,4.45-3.39,4.34,4.34,0,0,1,2.71.75,3.56,3.56,0,0,1,.92.94m-37.45,15h1.47l1.53,3.74,1.52,3.69h.1q1.5-3.69,3-7.41h1.49c-1.27,3.05-2.53,6.06-3.8,9.12h-1.38a.28.28,0,0,1-.19-.13,1.57,1.57,0,0,1-.12-.26l-3.49-8.37c0-.1-.07-.2-.13-.36m16.09-6.93h-1.36c-.09-.31-.11-12.84,0-13.3h1.34c.1.33.12,12.83,0,13.3M109.5.19h1.35c.09.31.12,12.76,0,13.27H109.5Zm-16,20.23.3,0H94.9v1.32l.08,0c.08-.08.17-.15.24-.23a4.26,4.26,0,0,1,1.9-1.23c.26-.07.53-.1.83-.15v1.39h-.23A2.53,2.53,0,0,0,96,22c-.28.19-.55.41-.81.62a.88.88,0,0,0-.29.73c0,1.87,0,3.74,0,5.61,0,.16,0,.32,0,.5H93.53ZM105,3.92h1.41v9.54a3.48,3.48,0,0,1-1.41,0ZM90.89,29.51H89.61c-.1-.32-.12-8.61,0-9.09h1.31Zm20.48,0h-1.28c-.09-.32-.11-8.6,0-9.09h1.3Zm-4.7-28.08a1,1,0,0,1-1,1,1,1,0,0,1-1-1,1,1,0,0,1,1-1,1,1,0,0,1,1,1M90.19,19a.91.91,0,0,1-1-.89,1,1,0,0,1,1.92,0,.9.9,0,0,1-1,.9m20.47,0a.91.91,0,0,1-1-.91,1,1,0,0,1,.94-.94,1,1,0,0,1,1,1,.92.92,0,0,1-1,.89"/></svg>