<svg xmlns="http://www.w3.org/2000/svg" xmlns:xlink="http://www.w3.org/1999/xlink" viewBox="0 0 600 77">
<defs><style>.a{fill:url(#a);}.b{fill:#fff;}.c{fill:#2d313a;}.d{fill:#807f83;}</style><linearGradient id="a" x1="30.64" y1="38.33" x2="103.81" y2="38.33" gradientUnits="userSpaceOnUse"><stop offset="0" stop-color="#c89882"/><stop offset="0.3" stop-color="#c5957f"/><stop offset="0.54" stop-color="#bb8d76"/><stop offset="0.76" stop-color="#aa7e67"/><stop offset="0.96" stop-color="#936952"/><stop offset="1" stop-color="#8d644c"/></linearGradient></defs><title>live-at-richmond-centre</title><path class="a" d="M0,0H76.67V76.67H0Z"/><path class="b" d="M28,33h-6.1V25H28a5.94,5.94,0,0,1,3.74,1,3.41,3.41,0,0,1,1.34,2.87V29a3.65,3.65,0,0,1-1.45,3,4.93,4.93,0,0,1-1.62.81A7.29,7.29,0,0,1,28,33M36,42.73l-6.08-8.09A8.29,8.29,0,0,0,32.07,34a6,6,0,0,0,1.71-1.19,5.19,5.19,0,0,0,1.12-1.7,5.94,5.94,0,0,0,.39-2.22v-.06a5.91,5.91,0,0,0-.39-2.18,5.17,5.17,0,0,0-1.14-1.72,6.43,6.43,0,0,0-2.36-1.46,9.43,9.43,0,0,0-3.27-.52H19.62v19.8h2.23V35h5.66l5.74,7.69ZM55.41,27.37l1.53-1.64a16.6,16.6,0,0,0-1.53-1.29,8.92,8.92,0,0,0-1.73-1,11.1,11.1,0,0,0-2-.64,12.19,12.19,0,0,0-2.45-.22,10.05,10.05,0,0,0-4,.8A9.73,9.73,0,0,0,42,25.6,10.2,10.2,0,0,0,40,28.87a10.49,10.49,0,0,0-.75,4v.06a10.64,10.64,0,0,0,.75,4A10,10,0,0,0,42,40.12a9.74,9.74,0,0,0,7.1,3,11,11,0,0,0,2.46-.25,10.42,10.42,0,0,0,2.06-.71A9.7,9.7,0,0,0,55.45,41a13.33,13.33,0,0,0,1.6-1.43l-1.47-1.44a12.57,12.57,0,0,1-2.89,2.11,7.64,7.64,0,0,1-3.51.75,7.36,7.36,0,0,1-3-.64,7.52,7.52,0,0,1-2.43-1.74A7.92,7.92,0,0,1,42.1,36a8.68,8.68,0,0,1-.58-3.21v-.06a8.59,8.59,0,0,1,.58-3.18A7.92,7.92,0,0,1,43.71,27a7.46,7.46,0,0,1,2.43-1.72,7.36,7.36,0,0,1,3-.63,7.44,7.44,0,0,1,3.5.77,12.66,12.66,0,0,1,2.73,1.95M28.65,54.08H48v-1.8H28.65Z"/><path class="c" d="M163.23,48.67a.69.69,0,0,1,1.22.44V61.54a.69.69,0,0,1-1.22.45L158,55.78a.68.68,0,0,1,0-.89l5.24-6.22M143.34,37h0a1.57,1.57,0,0,0-1.75,1.64h0V71.9a1.57,1.57,0,0,0,1.64,1.75h11.93A1.57,1.57,0,0,0,156.91,72V42.14c0-2.22.24-3.07,1.44-3.42h0c3-.77,7.6,5.28,12.94,12.36a1,1,0,0,0,1.86-.35c.07-.64,0-12,0-12h0A1.57,1.57,0,0,0,171.5,37H143.34Zm-7.48,36.62h0a1.56,1.56,0,0,0,1.64-1.74h0s.07-11.33,0-12a1,1,0,0,0-1.86-.35c-5.35,7.09-10.15,13.14-13.16,12.35a3.32,3.32,0,0,1-1.35-1c-1.8-2.14-3.12-8-3.14-15.56s1.4-13.41,3.21-15.55a3.26,3.26,0,0,1,1.34-1c3-.8,7.75,5.24,13.1,12.33a1,1,0,0,0,1.86-.35c.07-.64,0-12,0-12h0A1.57,1.57,0,0,0,135.86,37H115.2c-9.83,0-17.79,8.23-17.93,18.23h0v.17h0c.14,10,8.1,18.22,17.93,18.22h20.66ZM210,48.06c0,4.12-3,7-7.3,7h-9.61v-14h9.61c4.34,0,7.3,2.85,7.3,7m5.1,25.58-9.88-14.93c5-.44,9.5-4.06,9.5-10.65,0-6.75-4.78-11-11.47-11H188.53V73.64h4.55V59.09h7.3l9.33,14.55Zm6.64,0h4.12V47.13h-4.12Zm-.71-33a2.77,2.77,0,0,0,5.54,0,2.77,2.77,0,1,0-5.54,0m11.53,19.75c0,7.91,5.32,13.95,13.22,13.95a11.37,11.37,0,0,0,9.72-4.61l-2.75-2.53A8,8,0,0,1,246,70.62c-5.65,0-9.16-4.39-9.16-10.27s3.51-10.2,9.16-10.2a7.85,7.85,0,0,1,6.75,3.45l2.75-2.52a11.37,11.37,0,0,0-9.72-4.61c-7.9,0-13.22,6-13.22,13.88m50.77,13.29V54.92c0-5.76-2.91-8.45-8.46-8.45a13.15,13.15,0,0,0-9.49,4.5V37h-4.12V73.64h4.12V54.26a10.4,10.4,0,0,1,7.85-4.11c3.56,0,6,1.37,6,6V73.64Zm44.34,0V54.48c0-5.32-2.58-8-7.41-8a11.14,11.14,0,0,0-8.89,4.94c-.77-2.75-3.07-4.94-7.13-4.94a11.48,11.48,0,0,0-8.57,4.5V47.13h-4.11V73.64h4.11V54.26c1.43-2.14,4.28-4.11,7-4.11,3.46,0,4.89,2.14,4.89,5.48v18h4.12V54.21a9.25,9.25,0,0,1,7-4.06c3.4,0,4.89,2.14,4.89,5.48v18Zm28.6-13.29c0,5.44-3.13,10.27-8.78,10.27s-8.84-4.83-8.84-10.27,3.18-10.2,8.84-10.2,8.78,4.83,8.78,10.2m-21.9,0c0,7.69,5.05,13.95,13.12,13.95S360.59,68,360.59,60.35s-5-13.88-13.11-13.88-13.12,6.2-13.12,13.88M389.3,73.64V55c0-5.76-2.91-8.56-8.46-8.56A13.14,13.14,0,0,0,371.4,51V47.13h-4.11V73.64h4.11V54.26a10.24,10.24,0,0,1,7.85-4.11c3.57,0,5.93,1.48,5.93,6.14V73.64Zm27.44-7.19a9.86,9.86,0,0,1-8,4.17c-5.32,0-8.51-4.34-8.51-10.21s3.19-10.26,8.51-10.26a9.93,9.93,0,0,1,8,4.28v12m4.12,7.19V37h-4.12v14.1a11.1,11.1,0,0,0-8.95-4.66c-7,0-11.8,5.49-11.8,13.94,0,8.62,4.89,13.89,11.8,13.89a11.19,11.19,0,0,0,8.95-4.61v4Zm21.07-18.28c0,11.25,8.29,18.94,18.83,18.94a16.58,16.58,0,0,0,13.94-7.25l-3.9-2.14a12.19,12.19,0,0,1-10,5.32c-8,0-14.11-6.2-14.11-14.87s6.09-14.87,14.11-14.87a12.34,12.34,0,0,1,10,5.32l3.84-2.14a16.35,16.35,0,0,0-13.88-7.24c-10.54,0-18.83,7.68-18.83,18.93m49.89-5.49c6,0,8.67,4.89,8.73,8.84h-17.4c.22-4.06,3-8.84,8.67-8.84m-13,10.48c0,8.29,5.65,13.95,13.5,13.95a14.37,14.37,0,0,0,10.53-4.07l-2-2.69a11.56,11.56,0,0,1-8.18,3.35c-5.71,0-9.22-4.17-9.55-9.16h21.46v-1c0-8-4.72-14.21-12.73-14.21-7.58,0-13.06,6.2-13.06,13.88m54.44,13.29V55c0-5.76-2.91-8.56-8.45-8.56a13.12,13.12,0,0,0-9.44,4.5V47.13h-4.12V73.64h4.12V54.26a10.22,10.22,0,0,1,7.85-4.11c3.56,0,5.92,1.48,5.92,6.14V73.64Zm9.06-5.55c0,4,2,6.21,5.87,6.21a6.72,6.72,0,0,0,4.94-1.71l-1.21-3.07a4,4,0,0,1-2.8,1.1c-1.81,0-2.69-1.43-2.69-3.4V50.75h5.38V47.13h-5.38V39.88h-4.11v7.25h-4.39v3.62h4.39V68.09m19.42,5.55V54.87a9.72,9.72,0,0,1,7.19-4.23,7.22,7.22,0,0,1,1.65.17V46.58a11.29,11.29,0,0,0-8.84,4.83V47.13h-4.11V73.64Zm25.47-23.77c6,0,8.67,4.89,8.73,8.84h-17.4c.22-4.06,3-8.84,8.67-8.84m-13,10.48c0,8.29,5.66,13.95,13.51,13.95a14.37,14.37,0,0,0,10.53-4.07l-2-2.69a11.56,11.56,0,0,1-8.18,3.35c-5.71,0-9.22-4.17-9.55-9.16H600v-1c0-8-4.72-14.21-12.73-14.21-7.58,0-13.07,6.2-13.07,13.88"/><path class="d" d="M213.73,25.45v-18h6.39V5.9H205.64V7.42H212v18Zm-17.5-6.33H187l4.6-11.43Zm4.43,6.33-8-19.55h-2.08l-8,19.55h1.93l1.93-4.81h10.35l1.93,4.81Zm-34.85,0V23.93H155.09V16.19h10.52V14.66H155.09V7.42h10.72V5.9h-12.4V25.45Zm-26.78,0L147,5.9h-1.94L138,23.57,130.88,5.9h-1.94l8,19.55ZM122.55,5.9h-1.67V25.45h1.67Zm-8.82,19.55V23.93h-9.46V5.9H102.6V25.45Z"/></svg>