<svg xmlns="http://www.w3.org/2000/svg" xmlns:xlink="http://www.w3.org/1999/xlink" viewBox="0 0 150 150"><defs><style>.a{fill:url(#a);}.b{fill:#fff;}</style><linearGradient id="a" x1="33.94" y1="49" x2="177.11" y2="49" gradientUnits="userSpaceOnUse"><stop offset="0" stop-color="#c89882"/><stop offset="0.3" stop-color="#c5957f"/><stop offset="0.54" stop-color="#bb8d76"/><stop offset="0.76" stop-color="#aa7e67"/><stop offset="0.96" stop-color="#936952"/><stop offset="1" stop-color="#8d644c"/></linearGradient></defs><title>rc-logo</title><path class="a" d="M-26-26H124V124H-26Z" transform="translate(26 26)"/><path class="b" d="M28.69,38.62H16.76V22.9h12q4.73,0,7.33,2a6.71,6.71,0,0,1,2.61,5.62v.11a7.09,7.09,0,0,1-2.83,5.84,9.92,9.92,0,0,1-3.17,1.58,13.7,13.7,0,0,1-4,.55m15.74,19L32.53,41.77a15.78,15.78,0,0,0,4.21-1.3,11.65,11.65,0,0,0,3.35-2.32,9.83,9.83,0,0,0,2.18-3.32,11.44,11.44,0,0,0,.78-4.35v-.11a11.29,11.29,0,0,0-.78-4.26,9.86,9.86,0,0,0-2.21-3.38,12.74,12.74,0,0,0-4.62-2.85,18.63,18.63,0,0,0-6.39-1H12.38V57.61h4.38V42.55H27.83L39.06,57.61Zm38-30.06,3-3.21a29.34,29.34,0,0,0-3-2.52A17.71,17.71,0,0,0,79,19.88a19.92,19.92,0,0,0-4-1.24,23.28,23.28,0,0,0-4.79-.45,19.4,19.4,0,0,0-7.86,1.58,18.9,18.9,0,0,0-6.2,4.32,20.21,20.21,0,0,0-4.07,6.39,20.78,20.78,0,0,0-1.46,7.75v.11a20.94,20.94,0,0,0,1.46,7.81,19.55,19.55,0,0,0,4.07,6.34,19.1,19.1,0,0,0,13.9,5.78,21.54,21.54,0,0,0,4.81-.5,19.81,19.81,0,0,0,4-1.38,19.29,19.29,0,0,0,3.52-2.13,28.16,28.16,0,0,0,3.13-2.8l-2.88-2.82a23.79,23.79,0,0,1-5.65,4.12,14.93,14.93,0,0,1-6.86,1.47,14.19,14.19,0,0,1-6-1.25,14.9,14.9,0,0,1-4.77-3.4,15.84,15.84,0,0,1-3.15-5.07,17,17,0,0,1-1.13-6.28v-.11a16.93,16.93,0,0,1,1.13-6.23,15.9,15.9,0,0,1,3.15-5.06,14.69,14.69,0,0,1,4.77-3.38,15.84,15.84,0,0,1,12.78.28,24.59,24.59,0,0,1,5.34,3.82M30.06,79.81H67.94V76.29H30.06Z" transform="translate(26 26)"/></svg>