<svg xmlns="http://www.w3.org/2000/svg" viewBox="0 0 150 27"><defs><style>.a{fill:#fff;}</style></defs><title>shape-logo</title><path class="a" d="M17.23,15.36a5.31,5.31,0,0,1,1.51,1.94,6.17,6.17,0,0,1,.46,2.46v.08a6.18,6.18,0,0,1-.63,2.79,6.87,6.87,0,0,1-1.77,2.22A8.09,8.09,0,0,1,14,26.32a11.76,11.76,0,0,1-3.64.53,14.42,14.42,0,0,1-5.61-1.07A16.39,16.39,0,0,1,0,22.67l.86-.93a15,15,0,0,0,4.42,3,13.14,13.14,0,0,0,5.2,1,10.13,10.13,0,0,0,3-.43,7.16,7.16,0,0,0,2.37-1.21,5.37,5.37,0,0,0,1.51-1.83A5,5,0,0,0,17.93,20v-.08a5.28,5.28,0,0,0-.37-2.05,4.08,4.08,0,0,0-1.28-1.6,9.55,9.55,0,0,0-2.49-1.29,27.63,27.63,0,0,0-3.91-1.06A27.24,27.24,0,0,1,5.8,12.75,10.16,10.16,0,0,1,3,11.28,5.07,5.07,0,0,1,1.49,9.34,6.22,6.22,0,0,1,1,6.82V6.75a5.65,5.65,0,0,1,.63-2.61A7,7,0,0,1,3.39,2,8.38,8.38,0,0,1,6.06.52,10.56,10.56,0,0,1,9.47,0a14,14,0,0,1,4.85.8,15.08,15.08,0,0,1,4,2.26l-.78,1A12.78,12.78,0,0,0,9.4,1.16a9.06,9.06,0,0,0-2.93.44A7.37,7.37,0,0,0,4.21,2.81,5.42,5.42,0,0,0,2.78,4.57a4.46,4.46,0,0,0-.51,2.07v.07a5.11,5.11,0,0,0,.38,2,4,4,0,0,0,1.28,1.63,9.05,9.05,0,0,0,2.48,1.3,26.5,26.5,0,0,0,4,1.06,26.88,26.88,0,0,1,4.11,1.14,10.07,10.07,0,0,1,2.75,1.51M50.67.37V12.75H32.81V.37H31.54v26.1h1.27V13.91H50.67V26.47h1.27V.37Zm67.79,8a6,6,0,0,0-2.33-5,10.37,10.37,0,0,0-6.4-1.77h-7.94V15.29h7.79a10.55,10.55,0,0,0,6.47-1.8,6,6,0,0,0,2.41-5.08Zm-1.38-5.87a6.86,6.86,0,0,1,2,2.48,7.76,7.76,0,0,1,.69,3.34v.07a7.74,7.74,0,0,1-.74,3.47,7.23,7.23,0,0,1-2.11,2.53,9.39,9.39,0,0,1-3.22,1.57,15.16,15.16,0,0,1-4.11.52h-7.75v10h-1.27V.37h9.32A14.63,14.63,0,0,1,114,.91a9.12,9.12,0,0,1,3.12,1.55M131.43.37v26.1H150V25.32H132.7V13.91h15.47V12.75H132.7V1.53h17.11V.37ZM75.65.19,63.27,26.47h1.31L76.21,1.68l7.53,16H70.59L70,18.87H84.3l3.54,7.6h1.38L76.85.19Z"/></svg>